<svg width="12" height="12" viewBox="0 0 12 12" fill="none" xmlns="http://www.w3.org/2000/svg">
<path fill-rule="evenodd" clip-rule="evenodd" d="M4.13721 11.3059L9.46231 3.87942C9.75172 3.47893 9.85462 3.01592 9.75815 2.54447C9.67455 2.11588 9.43016 1.70837 9.06357 1.39923L8.16962 0.633392C7.39144 -0.0340813 6.42675 0.036179 5.87365 0.802016L5.27554 1.63882C5.19837 1.7435 5.21766 1.89808 5.31413 1.98239C5.31413 1.98239 6.82548 3.28923 6.85764 3.31734C6.96054 3.42273 7.03772 3.56325 7.05701 3.73187C7.08917 4.06209 6.87694 4.37124 6.5618 4.4134C6.41388 4.43447 6.27239 4.38529 6.16949 4.29395L4.58097 2.9309C4.50379 2.86837 4.38803 2.88172 4.32371 2.96603L0.548548 8.23556C0.304159 8.56578 0.220552 8.99437 0.304159 9.4089L0.786505 11.6643C0.812231 11.7837 0.9087 11.868 1.02446 11.868L3.14679 11.8399C3.53267 11.8329 3.89282 11.6432 4.13721 11.3059ZM7.10884 10.6034H10.5695C10.9072 10.6034 11.1818 10.9034 11.1818 11.2723C11.1818 11.6419 10.9072 11.9412 10.5695 11.9412H7.10884C6.7712 11.9412 6.49658 11.6419 6.49658 11.2723C6.49658 10.9034 6.7712 10.6034 7.10884 10.6034Z" fill="#19EF42"/>
</svg>
