<svg width="9" height="9" viewBox="0 0 9 9" fill="none" xmlns="http://www.w3.org/2000/svg">
<path fill-rule="evenodd" clip-rule="evenodd" d="M8.19603 2.05712C8.37433 2.05712 8.52277 2.19171 8.52277 2.36295V2.52129C8.52277 2.68837 8.37433 2.82712 8.19603 2.82712H0.599949C0.421202 2.82712 0.272766 2.68837 0.272766 2.52129V2.36295C0.272766 2.19171 0.421202 2.05712 0.599949 2.05712H1.93632C2.20778 2.05712 2.44403 1.88171 2.5051 1.63421L2.57508 1.35005C2.68385 0.962968 3.04179 0.705887 3.45143 0.705887H5.3441C5.74929 0.705887 6.11124 0.962968 6.21599 1.32963L6.29088 1.63379C6.3515 1.88171 6.58775 2.05712 6.85966 2.05712H8.19603ZM7.51713 7.17582C7.65665 5.99375 7.90092 3.18545 7.90092 3.15711C7.90983 3.07128 7.87908 2.99003 7.81801 2.92462C7.75248 2.86337 7.66957 2.82712 7.57819 2.82712H1.22086C1.12904 2.82712 1.04167 2.86337 0.981047 2.92462C0.919533 2.99003 0.889222 3.07128 0.893679 3.15711C0.894498 3.16232 0.903263 3.26124 0.917917 3.42662C0.983015 4.16131 1.16432 6.20755 1.28148 7.17582C1.36439 7.88915 1.87924 8.33748 2.62498 8.35373C3.20045 8.36581 3.7933 8.36998 4.39953 8.36998C4.97054 8.36998 5.55046 8.36581 6.14376 8.35373C6.91536 8.34164 7.42976 7.90123 7.51713 7.17582Z" fill="#E71D36"/>
</svg>
