<svg width="931" height="900" viewBox="0 0 931 900" fill="none" xmlns="http://www.w3.org/2000/svg">
<path opacity="0.1" d="M438.132 259.892C474.815 252.297 509.529 231.36 539.465 199.749C584.299 152.333 677.903 71.6643 767.29 111.896C890.689 167.112 891.251 327.424 859.066 414.456C827.022 501.488 599.197 756.426 303.911 715.989C39.6855 679.657 -11.7542 264.202 129.073 188.87C251.488 123.801 293.089 289.86 438.132 259.892Z" fill="#605BFF"/>
<path d="M787.216 583.793C781.022 583.793 776 576.452 776 567.397C776 558.341 781.022 551 787.216 551C793.411 551 798.433 558.341 798.433 567.397C798.433 576.452 793.411 583.793 787.216 583.793Z" fill="#FFCDB3"/>
<path opacity="0.2" d="M463.867 900C297.555 900 162.733 893.913 162.733 886.404C162.733 878.896 297.555 872.809 463.867 872.809C630.178 872.809 765 878.896 765 886.404C765 893.913 630.178 900 463.867 900Z" fill="#605BFF"/>
<path d="M529.133 359.092L528.695 362.032L528.11 365.155L526.942 371.586C526.212 375.995 525.336 380.221 524.459 384.63C523.583 389.039 522.707 393.265 521.685 397.491C520.808 401.716 519.786 405.942 518.764 410.168C517.742 414.393 516.573 418.435 515.405 422.477C514.237 426.519 513.068 430.561 511.754 434.235C510.44 438.094 509.125 441.768 507.665 445.443C506.204 448.933 504.744 452.424 503.138 455.364C501.531 458.487 499.925 461.243 498.464 463.447C496.858 465.652 495.398 467.489 494.083 468.408C493.499 468.959 492.915 469.327 492.477 469.51C492.039 469.694 491.747 469.878 491.308 470.062H491.162L490.578 470.245L489.264 470.613L486.635 471.164L481.232 472.266L475.828 473.369L470.425 474.471C466.774 475.206 463.269 475.941 459.618 476.492L454.214 477.594C452.462 477.962 450.563 478.329 448.811 478.697L446.036 479.248L443.261 479.799C442.385 479.983 441.509 480.166 440.487 480.35C439.61 480.534 438.588 480.717 437.858 480.901L437.128 481.085C428.657 483.106 422.962 493.394 424.568 504.234C425.883 513.053 431.724 519.483 438.588 520.218L441.509 520.586C442.531 520.769 443.407 520.769 444.43 520.953C446.328 521.137 448.373 521.32 450.271 521.504L453.192 521.688L456.113 521.872C458.011 521.872 459.91 522.055 461.954 522.055C463.853 522.055 465.898 522.055 467.796 522.055C469.695 522.055 471.739 522.055 473.638 522.055C477.581 522.055 481.378 521.872 485.321 521.688C487.219 521.504 489.264 521.504 491.162 521.32L494.083 521.137L495.544 520.953H496.274L497.588 520.769C500.947 520.218 504.306 519.116 507.373 517.646C510.44 516.176 513.214 514.339 515.843 512.502C518.472 510.481 520.808 508.46 522.853 506.071C525.044 503.867 526.942 501.478 528.695 499.274C530.447 496.885 532.053 494.497 533.66 492.108C535.12 489.72 536.581 487.332 537.895 484.943C540.524 480.166 542.86 475.389 544.905 470.429C546.95 465.652 548.848 460.692 550.454 455.915C552.207 451.138 553.667 446.177 555.128 441.401C556.588 436.624 557.902 431.663 559.217 426.886C560.385 422.11 561.553 417.149 562.722 412.372C563.744 407.595 564.766 402.635 565.643 397.858C566.519 393.081 567.395 388.121 568.271 383.16C568.709 380.772 569.001 378.2 569.44 375.811L570.024 372.137L570.316 370.299L570.608 368.095C572.36 353.764 564.474 340.352 553.083 338.148C541.984 335.943 531.615 345.313 529.425 358.909L529.133 359.092Z" fill="#FFAA8C"/>
<path d="M573.821 374.525C571.046 386.467 559.801 427.07 549.87 447.279L506.204 421.374C506.204 421.374 521.1 378.015 528.841 350.641C531.323 341.822 536.873 334.657 544.029 331.533C548.848 329.512 554.544 328.961 560.969 332.819C573.529 340.352 574.843 357.806 574.697 366.441C574.843 369.38 574.405 371.952 573.821 374.525Z" fill="#605BFF"/>
<path d="M408.21 800.58L396.673 824.097L374.767 811.971L384.698 786.617L408.21 800.58Z" fill="#FFAA8C"/>
<path d="M305.332 824.603L388.136 870.718C389.305 869.616 390.327 867.778 391.203 865.574C394.854 857.122 397.483 841.69 399.527 832.136C399.819 831.034 399.965 829.931 400.258 829.013C400.696 827.359 400.988 826.073 401.28 825.338C403.762 818.173 398.359 816.519 398.359 816.519C386.384 822.215 382.295 801.454 374.993 803.475C374.993 803.475 371.78 804.21 362.579 808.068C353.379 811.926 340.381 810.457 329.136 810.273C314.532 809.905 308.837 814.498 306.5 818.54C304.894 821.664 305.332 824.603 305.332 824.603Z" fill="#A4A4A4"/>
<path d="M305.4 825.382L388.204 871.497C389.373 870.395 390.395 868.557 391.271 866.353L306.568 819.136C304.962 822.443 305.4 825.382 305.4 825.382Z" fill="#605BFF"/>
<path d="M379.88 866.904L382.363 868.19C381.194 863.23 380.756 856.616 383.823 849.083C387.912 838.978 395.214 834.752 399.888 833.099C400.18 831.997 400.326 830.894 400.618 829.976C395.652 831.445 386.744 835.671 381.925 847.797C378.858 855.146 378.858 861.576 379.88 866.904Z" fill="#605BFF"/>
<path d="M361.917 815.829C362.501 816.196 363.232 816.013 363.67 815.278C364.108 814.543 364.108 813.257 363.378 812.706L358.704 808.112C358.12 807.561 357.098 807.561 356.66 808.48C356.222 809.215 356.222 810.501 356.952 811.052L361.625 815.645C361.771 815.645 361.917 815.645 361.917 815.829Z" fill="#605BFF"/>
<path d="M369.074 813.257C369.658 813.624 370.388 813.44 370.826 812.705C371.264 811.971 371.264 810.684 370.534 810.133L365.861 805.54C365.277 804.989 364.254 804.989 363.816 805.908C363.378 806.643 363.378 807.929 364.108 808.48L368.782 813.073C368.782 813.073 368.928 813.073 369.074 813.257Z" fill="#605BFF"/>
<path d="M355.491 816.748C356.075 817.115 356.805 816.932 357.243 816.197C357.681 815.462 357.681 814.176 356.951 813.625L352.278 809.031C351.694 808.48 350.671 808.48 350.233 809.399C349.795 810.134 349.795 811.42 350.525 811.971L355.199 816.564C355.199 816.564 355.345 816.564 355.491 816.748Z" fill="#605BFF"/>
<path d="M349.066 817.482C349.65 817.85 350.38 817.666 350.818 816.931C351.257 816.196 351.257 814.91 350.526 814.359L345.853 809.766C345.269 809.215 344.247 809.215 343.809 810.133C343.37 810.868 343.37 812.154 344.101 812.705L348.774 817.298C348.774 817.298 348.92 817.298 349.066 817.482Z" fill="#605BFF"/>
<path d="M342.202 817.667C342.786 818.034 343.516 817.85 343.954 817.116C344.392 816.381 344.392 815.095 343.662 814.543L338.989 809.95C338.405 809.399 337.382 809.399 336.944 810.318C336.506 811.053 336.506 812.339 337.236 812.89L341.91 817.483C341.91 817.483 342.056 817.667 342.202 817.667Z" fill="#605BFF"/>
<path d="M335.045 817.115C335.629 817.482 336.36 817.299 336.798 816.564C337.236 815.829 337.236 814.543 336.506 813.992L331.832 809.399C331.248 808.847 330.226 808.847 329.788 809.766C329.35 810.501 329.35 811.787 330.08 812.338L334.753 816.931C334.753 816.931 334.899 817.115 335.045 817.115Z" fill="#605BFF"/>
<path d="M459.617 572.396C467.357 562.842 527.963 541.53 568.27 555.677C572.944 566.884 578.785 595.177 564.327 621.45C511.315 632.29 481.815 654.704 481.815 654.704C481.815 654.704 462.976 709.27 451.877 729.296C440.778 749.322 415.075 813.074 415.075 813.074L376.52 792.313C376.666 792.313 438.733 598.301 459.617 572.396Z" fill="#1A060A"/>
<path d="M419.31 801.132C419.164 801.132 419.018 801.132 418.872 800.948L381.193 781.29C380.609 780.922 380.317 780.187 380.609 779.452C380.901 778.717 381.486 778.35 382.07 778.717L419.748 798.376C420.332 798.743 420.624 799.478 420.332 800.213C420.186 800.764 419.748 801.132 419.31 801.132Z" fill="#35252F"/>
<path d="M413.029 797.089C412.883 797.089 412.737 797.089 412.591 796.905C412.007 796.538 411.715 795.803 412.007 795.068C412.153 794.884 420.039 770.081 438.44 734.806C456.695 699.899 475.826 640.74 476.118 640.189C476.411 639.454 476.995 639.086 477.579 639.454C478.163 639.821 478.455 640.556 478.163 641.291C478.017 641.842 458.74 701.185 440.339 736.276C422.084 771.184 414.198 795.803 414.198 795.986C413.76 796.721 413.467 797.089 413.029 797.089Z" fill="#35252F"/>
<path d="M505.62 804.623L502.699 832.181H478.603L479.625 803.888L505.62 804.623Z" fill="#FFAA8C"/>
<path d="M419.389 878.986H510.079C510.81 877.516 511.102 875.311 511.248 872.739C511.832 863.002 509.349 847.753 508.181 838.016C508.035 836.913 507.889 835.811 507.743 834.892C507.597 833.239 507.451 831.953 507.451 830.85C507.451 822.95 501.901 824.236 501.901 824.236C492.701 835.627 482.332 818.541 476.198 824.236C476.198 824.236 473.57 826.625 466.414 834.708C459.258 842.792 446.99 848.304 436.622 853.632C423.186 860.797 419.389 867.779 418.659 872.556C418.075 876.598 419.389 878.986 419.389 878.986Z" fill="#A4A4A4"/>
<path d="M419.456 879.765H510.147C510.877 878.295 511.169 876.091 511.315 873.519H418.726C418.142 877.377 419.456 879.765 419.456 879.765Z" fill="#605BFF"/>
<path d="M500.945 879.765H503.574C500.945 875.906 498.317 870.027 498.755 861.576C499.193 850.369 504.596 842.652 508.247 838.794C508.101 837.692 507.955 836.59 507.809 835.671C503.72 839.529 497.002 847.98 496.418 861.576C496.272 869.476 498.463 875.539 500.945 879.765Z" fill="#605BFF"/>
<path d="M468.233 842.102C468.963 842.102 469.547 841.55 469.693 840.632C469.839 839.713 469.401 838.611 468.671 838.427L462.975 836.59C462.245 836.406 461.369 836.957 461.223 837.876C461.077 838.795 461.515 839.897 462.245 840.081L467.941 841.918C467.941 842.102 468.087 842.102 468.233 842.102Z" fill="#605BFF"/>
<path d="M473.784 836.222C474.514 836.222 475.098 835.671 475.244 834.752C475.39 833.833 474.952 832.731 474.222 832.547L468.526 830.71C467.796 830.526 466.92 831.077 466.774 831.996C466.628 832.915 467.066 834.017 467.796 834.201L473.492 836.038C473.638 836.222 473.638 836.222 473.784 836.222Z" fill="#605BFF"/>
<path d="M462.54 846.325C463.27 846.325 463.854 845.774 464 844.855C464.146 843.937 463.708 842.834 462.978 842.651L457.283 840.814C456.552 840.63 455.676 841.181 455.53 842.1C455.384 843.018 455.822 844.121 456.552 844.304L462.248 846.142C462.248 846.325 462.394 846.325 462.54 846.325Z" fill="#605BFF"/>
<path d="M456.842 850.369C457.572 850.369 458.157 849.818 458.303 848.899C458.449 847.981 458.011 846.878 457.28 846.695L451.585 844.857C450.855 844.674 449.978 845.225 449.832 846.144C449.686 847.062 450.124 848.164 450.855 848.348L456.55 850.185C456.55 850.185 456.696 850.369 456.842 850.369Z" fill="#605BFF"/>
<path d="M450.708 854.044C451.438 854.044 452.023 853.493 452.169 852.574C452.315 851.656 451.877 850.553 451.146 850.37L445.451 848.532C444.721 848.349 443.844 848.9 443.698 849.818C443.552 850.737 443.99 851.839 444.721 852.023L450.416 853.86C450.416 854.044 450.562 854.044 450.708 854.044Z" fill="#605BFF"/>
<path d="M443.991 857.166C444.721 857.166 445.305 856.615 445.451 855.696C445.597 854.778 445.159 853.675 444.429 853.492L438.733 851.654C438.003 851.471 437.127 852.022 436.981 852.94C436.835 853.859 437.273 854.961 438.003 855.145L443.699 856.982C443.699 857.166 443.845 857.166 443.991 857.166Z" fill="#605BFF"/>
<path d="M530.739 348.62C530.593 359.827 540.378 380.221 546.658 424.131C546.804 425.233 546.95 426.335 547.096 427.438C547.388 429.826 547.68 432.398 548.118 434.97C548.264 436.073 548.41 436.991 548.41 438.094C548.702 440.666 548.994 443.238 549.286 445.994C549.433 446.913 549.432 447.831 549.579 448.75C549.871 452.24 550.163 455.731 550.455 459.406C550.747 462.713 550.893 465.836 551.039 469.327C551.185 470.98 551.185 472.818 551.331 474.471C551.331 476.308 551.477 478.146 551.477 479.983C552.207 499.641 553.083 545.756 551.769 571.477C579.955 593.892 638.663 595.178 678.239 558.065C680.576 540.428 676.925 480.534 675.757 462.713C675.465 459.222 675.173 455.548 674.88 452.057C673.274 434.97 670.499 418.068 667.14 400.614C666.994 399.695 666.702 398.777 666.556 397.675C663.781 383.16 660.715 368.279 657.356 352.478C650.93 321.062 639.539 303.424 624.497 304.159C617.487 304.343 611.791 303.24 607.41 301.954C606.826 301.771 606.388 301.587 605.95 301.403C600.692 299.566 597.626 297.361 597.626 297.361L564.913 305.261C562.868 311.141 559.801 315.183 556.296 318.306C555.858 318.673 555.566 319.041 555.128 319.408C544.613 328.411 530.885 330.248 530.739 348.62Z" fill="#605BFF"/>
<path d="M548.117 434.97C548.263 436.072 548.409 436.991 548.409 438.093C548.701 440.665 548.993 443.237 549.285 445.993C549.431 446.912 549.431 447.83 549.577 448.749C549.87 452.24 550.162 455.731 550.454 459.405C550.746 462.712 550.892 465.835 551.038 469.326C551.184 470.98 551.184 472.817 551.33 474.47L560.238 488.617L570.607 453.158L551.768 422.477L548.117 434.97Z" fill="#605BFF"/>
<path d="M599.523 447.648L588.862 482.923L570.461 453.16L580.976 416.599L599.523 447.648Z" fill="#605BFF"/>
<path d="M628.731 442.504L617.778 477.779L599.523 447.648L610.33 411.271L628.731 442.504Z" fill="#AD2F24"/>
<path d="M657.792 437.909L646.547 472.817L628.584 442.502L639.683 406.309L657.792 437.909Z" fill="#605BFF"/>
<path d="M664.805 546.123C665.243 546.123 665.535 545.756 665.535 545.205C668.748 447.096 653.998 374.709 653.852 373.974C653.706 373.423 653.414 373.239 652.975 373.239C652.537 373.423 652.391 373.79 652.391 374.342C652.537 375.076 667.287 447.096 664.074 545.021C664.074 545.572 664.366 546.123 664.805 546.123Z" fill="white"/>
<path d="M580.393 340.904C579.183 340.904 578.202 339.67 578.202 338.148C578.202 336.626 579.183 335.393 580.393 335.393C581.602 335.393 582.583 336.626 582.583 338.148C582.583 339.67 581.602 340.904 580.393 340.904Z" fill="white"/>
<path d="M580.976 354.499C579.766 354.499 578.785 353.265 578.785 351.743C578.785 350.221 579.766 348.987 580.976 348.987C582.185 348.987 583.166 350.221 583.166 351.743C583.166 353.265 582.185 354.499 580.976 354.499Z" fill="white"/>
<path d="M579.515 372.503C584.919 370.299 590.176 366.257 595.288 360.194C604.05 349.905 609.161 337.228 609.161 337.228C609.307 336.677 609.161 336.126 608.869 335.942C608.577 335.575 608.139 335.758 607.847 336.31C607.847 336.493 602.736 348.803 594.265 358.908C582.874 372.319 571.045 375.81 559.07 369.38C558.632 369.196 558.34 369.38 558.193 369.931C558.047 370.482 558.194 371.033 558.632 371.217C565.495 375.075 572.505 375.626 579.369 372.871C579.369 372.503 579.369 372.503 579.515 372.503Z" fill="white"/>
<path d="M577.91 325.655C585.65 323.818 593.244 313.345 593.682 312.794C593.974 312.427 593.974 311.876 593.682 311.324C593.39 310.773 592.952 310.957 592.66 311.324C592.514 311.508 579.662 328.962 571.484 322.532C571.192 322.164 570.754 322.348 570.462 322.899C570.316 323.45 570.462 324.001 570.754 324.185C572.945 325.839 575.427 326.206 577.91 325.655Z" fill="white"/>
<path d="M592.368 531.243C595.289 530.508 598.21 529.589 601.13 528.119C608.286 524.812 615.442 519.3 622.452 511.952C634.427 499.458 641.875 485.495 641.875 485.312C642.167 484.944 642.021 484.209 641.729 484.025C641.437 483.658 640.999 483.842 640.707 484.209C640.707 484.393 633.259 498.172 621.576 510.482C610.769 521.873 593.828 534.366 574.843 529.222C574.405 529.038 574.113 529.405 573.967 529.956C573.967 530.508 574.113 531.059 574.551 531.059C580.247 532.712 586.234 532.712 592.368 531.243Z" fill="white"/>
<path d="M588.277 247.571C588.715 252.348 594.119 249.959 596.748 246.652C597.916 245.183 597.332 241.876 597.186 237.834C597.04 232.873 596.163 236.18 598.938 229.015C601.859 221.299 597.04 209.908 593.097 210.643C593.097 210.643 596.456 199.068 588.277 192.638C580.975 186.942 576.302 193.373 576.302 193.373C576.302 193.373 573.673 183.819 566.956 184.003C560.238 184.186 556.295 193.005 556.295 193.005C556.295 193.005 550.891 186.575 543.735 191.903C536.579 197.231 540.084 204.029 540.084 204.029C540.084 204.029 532.198 204.58 530.3 213.031C528.547 220.196 532.928 224.422 532.928 224.422C532.928 224.422 530.008 228.28 531.906 235.996C533.512 242.611 537.456 242.243 538.186 246.836C538.624 249.408 539.5 252.348 540.23 254.553C540.814 256.206 542.567 258.778 543.881 258.594C545.634 258.227 546.218 254.185 545.634 251.98C544.758 248.306 543.735 242.978 545.05 239.303C547.24 233.424 544.465 227.361 548.847 224.422C553.228 221.482 570.314 227.729 580.099 216.705C580.099 216.705 580.683 224.973 584.918 226.443C589.154 227.913 588.423 234.527 588.423 240.038C588.131 242.243 588.277 247.571 588.277 247.571Z" fill="#030229"/>
<path d="M563.452 298.279L565.058 308.751C566.226 309.486 567.249 310.221 568.417 310.588C584.481 318.121 598.063 300.851 598.063 300.851L592.66 264.657L567.103 294.237L563.452 298.279Z" fill="#FFAA8C"/>
<path d="M563.452 298.279L565.059 308.751C566.227 309.486 567.249 310.221 568.418 310.589C579.809 301.586 586.235 283.214 586.235 283.214L566.957 294.237L563.452 298.279Z" fill="#D0886F"/>
<path d="M546.072 254.369C546.072 254.369 540.231 248.49 538.624 256.206C537.018 263.922 541.253 277.518 547.971 273.476L546.072 254.369Z" fill="#FFAA8C"/>
<path d="M544.758 280.274C544.758 280.274 547.971 301.954 565.787 297.544C583.604 293.319 592.951 272.742 593.535 271.823L593.097 267.23L590.614 243.346L589.3 230.669C589.3 230.669 588.131 207.52 570.315 207.336C557.317 207.336 545.926 212.664 541.253 222.401C541.107 222.769 540.961 222.952 540.815 223.32C539.354 226.627 538.77 230.485 539.062 234.711L541.983 257.493L542.713 263.004L544.758 280.274Z" fill="#FFAA8C"/>
<path d="M572.214 232.689C571.629 235.445 569.585 237.099 567.394 236.548C566.08 236.18 564.619 235.813 563.159 235.813C560.968 235.813 559.362 233.424 559.508 230.668C559.362 230.668 567.54 227.729 572.214 232.689Z" fill="#35252F"/>
<path d="M539.939 240.407C541.253 242.795 543.736 243.346 545.634 241.693C546.657 240.774 547.971 239.855 549.431 239.121C551.476 238.018 552.352 235.079 551.33 232.69C551.33 232.506 542.86 233.609 539.939 240.407Z" fill="#35252F"/>
<path d="M541.073 222.842C543.761 220.965 546.001 221.528 550.779 223.029C557.798 225.093 564.518 220.215 570.192 214.586C576.016 208.957 580.645 213.835 579.003 217.963C577.36 222.279 578.107 225.281 581.242 229.409C584.378 233.537 577.808 237.477 582.138 240.292C583.93 241.418 584.229 243.857 583.93 246.296C583.632 248.923 585.573 250.987 587.514 250.049C589.456 248.923 591.696 243.482 591.696 243.482L590.352 230.535C590.352 230.535 589.157 206.893 570.939 206.705C557.648 206.705 546.001 212.147 541.222 222.091C541.372 222.279 541.222 222.467 541.073 222.842Z" fill="#030229"/>
<path d="M571.78 256.164C568.611 256.921 565.846 256.242 565.606 254.647C565.365 253.052 567.739 251.145 570.908 250.388C574.078 249.631 576.842 250.31 577.083 251.904C577.324 253.499 574.95 255.406 571.78 256.164Z" fill="#FD9983"/>
<path d="M542.567 263.003C543.005 263.003 543.443 262.82 544.027 262.82C547.24 262.085 549.577 260.247 549.285 258.594C548.993 256.94 546.218 256.389 543.151 257.124C542.713 257.308 542.275 257.308 541.983 257.492L542.567 263.003Z" fill="#FD9983"/>
<path d="M565.678 249.88C564.727 250.108 563.688 248.514 563.357 246.321C563.026 244.128 563.528 242.166 564.479 241.939C565.43 241.712 566.469 243.305 566.8 245.498C567.131 247.691 566.629 249.653 565.678 249.88Z" fill="#35252F"/>
<path d="M548.431 253.918C547.481 254.146 546.441 252.552 546.11 250.359C545.779 248.166 546.282 246.204 547.232 245.977C548.183 245.75 549.222 247.343 549.554 249.536C549.885 251.729 549.382 253.691 548.431 253.918Z" fill="#35252F"/>
<path d="M556.587 269.986C562.867 268.516 566.956 260.432 567.102 260.432C567.248 260.065 567.248 259.513 566.81 259.146C566.518 258.962 566.08 258.962 565.788 259.513C565.496 260.065 559.07 272.374 550.308 267.23C550.015 267.046 549.577 267.23 549.285 267.597C549.139 267.965 549.285 268.516 549.577 268.883C552.206 270.353 554.543 270.537 556.587 269.986Z" fill="#35252F"/>
<path d="M586.671 264.29C586.817 264.474 590.03 270.537 593.535 271.639L593.097 267.046C593.097 267.23 590.176 267.23 586.671 264.29Z" fill="#35252F"/>
<path d="M587.547 248.674C587.547 248.674 592.659 235.446 599.084 243.346C604.342 249.96 599.523 271.272 590.322 266.495L587.547 248.674Z" fill="#FFAA8C"/>
<path d="M590.615 262.82C590.907 262.82 591.199 262.269 591.199 261.901C590.615 252.899 596.018 248.489 596.31 248.306C596.602 248.122 596.748 247.387 596.456 247.02C596.31 246.652 595.872 246.468 595.434 246.652C595.142 246.836 589.154 251.796 589.738 261.901C589.884 262.452 590.176 262.82 590.615 262.82Z" fill="#35252F"/>
<path d="M596.456 255.839C596.603 255.839 596.895 255.655 596.895 255.288C597.041 254.92 596.895 254.369 596.603 254.001C596.31 253.818 593.39 251.797 591.345 253.083C591.053 253.267 590.761 253.818 591.053 254.369C591.199 254.736 591.637 255.104 592.075 254.736C593.244 254.001 595.288 255.104 596.018 255.655C596.164 255.839 596.31 255.839 596.456 255.839Z" fill="#35252F"/>
<path d="M530.884 254.552L541.399 252.531L541.691 254.368L531.176 256.389C530.738 256.389 530.446 256.206 530.3 255.655C530.154 255.103 530.446 254.736 530.884 254.552Z" fill="#605BFF"/>
<path d="M572.068 260.065C578.786 258.411 583.313 250.327 581.999 241.692C580.684 233.241 574.259 227.546 567.395 229.199C560.677 230.853 556.15 238.936 557.464 247.571C558.778 256.206 565.35 261.718 572.068 260.065ZM567.687 231.22C573.674 229.75 579.37 234.711 580.538 242.243C581.707 249.776 577.764 256.941 571.776 258.411C565.788 259.881 560.093 254.92 558.924 247.388C557.902 239.855 561.845 232.69 567.687 231.22Z" fill="#605BFF"/>
<path d="M543.152 267.046C549.87 265.393 554.397 257.309 553.083 248.674C551.768 240.222 545.343 234.527 538.479 236.18C531.761 237.834 527.234 245.918 528.548 254.553C530.009 263.004 536.434 268.7 543.152 267.046ZM538.917 238.018C544.905 236.548 550.6 241.508 551.768 249.041C552.937 256.574 548.994 263.739 543.006 265.209C537.018 266.679 531.323 261.718 530.155 254.185C528.986 246.653 532.929 239.488 538.917 238.018Z" fill="#605BFF"/>
<path d="M596.895 241.509C597.041 241.509 597.041 241.509 597.187 241.325C597.479 241.141 597.625 240.406 597.479 240.039C592.659 230.302 580.684 238.753 580.538 238.753C580.246 238.937 580.1 239.488 580.246 240.039C580.392 240.406 580.83 240.59 581.268 240.406C581.414 240.406 592.075 232.69 596.164 240.957C596.31 241.509 596.603 241.692 596.895 241.509Z" fill="#605BFF"/>
<path d="M557.901 258.778C558.34 258.594 558.486 258.227 558.486 257.676C558.34 257.125 558.047 256.941 557.609 256.941C554.981 257.492 553.52 256.206 553.082 255.471C554.835 247.571 556.441 239.487 556.441 239.303C556.587 238.752 556.295 238.385 555.857 238.201C555.419 238.017 555.127 238.385 554.981 238.936C554.981 238.936 553.228 247.387 551.476 255.471C551.476 255.655 551.476 256.022 551.622 256.206C551.768 256.573 553.666 259.881 557.901 258.778Z" fill="#35252F"/>
<path d="M551.914 246.469C552.06 246.469 552.206 246.285 552.352 246.101C553.959 242.978 557.318 244.448 557.318 244.448C557.756 244.631 558.194 244.448 558.194 243.897C558.34 243.345 558.194 242.794 557.756 242.794C556.149 242.059 552.791 241.692 551.038 244.999C550.746 245.366 550.892 245.918 551.184 246.285C551.622 246.469 551.768 246.652 551.914 246.469Z" fill="#605BFF"/>
<path d="M596.165 288.542C596.165 288.542 608.287 288.174 610.769 302.689L603.467 323.082C603.467 323.082 596.604 311.324 580.539 312.059C580.393 312.059 592.368 300.851 596.165 288.542Z" fill="white"/>
<path d="M571.339 311.691C571.339 311.691 565.351 308.752 563.745 300.668C563.745 300.668 553.084 308.384 553.23 320.694L563.015 326.757C563.161 326.94 566.52 316.101 571.339 311.691Z" fill="white"/>
<path d="M678.531 556.411C678.531 556.411 697.224 649.376 600.253 649.376C548.409 649.376 523.729 643.129 523.729 643.129C523.729 643.129 522.414 700.634 520.078 725.07C517.595 749.321 509.125 809.95 509.125 809.95L468.234 813.992C468.234 813.992 461.662 603.261 486.781 583.786C511.753 564.311 547.825 563.76 609.6 556.411C609.6 556.044 665.095 544.286 678.531 556.411Z" fill="#35252F"/>
<path d="M503.575 792.863C503.429 792.863 503.429 792.863 503.283 792.863C502.699 792.68 502.261 791.945 502.407 791.21C508.103 761.63 510.293 719.006 512.046 685.017C513.798 651.396 514.82 633.758 517.595 630.635C520.662 627.144 529.716 628.43 544.759 630.451C563.452 633.024 591.637 636.698 622.013 632.289C637.055 630.084 648.739 622.735 656.479 610.242C670.352 587.827 667.14 556.411 667.14 556.043C666.994 555.308 667.432 554.573 668.162 554.39C668.746 554.206 669.33 554.757 669.476 555.676C669.622 556.962 672.835 588.562 658.377 611.895C650.199 624.94 638.224 632.84 622.452 635.044C591.783 639.454 563.452 635.596 544.759 633.207C531.761 631.554 521.538 630.084 519.202 632.656C518.617 633.207 517.595 636.147 516.573 648.824C515.843 658.194 515.112 670.687 514.382 685.201C512.63 719.374 510.293 761.998 504.598 791.945C504.598 792.496 504.013 792.863 503.575 792.863Z" fill="#67505A"/>
<path d="M468.818 797.09C468.234 797.09 467.796 796.539 467.65 795.804C467.65 795.069 468.088 794.334 468.672 794.334L510.439 791.211C511.023 791.211 511.608 791.762 511.608 792.497C511.608 793.232 511.169 793.967 510.585 793.967L468.818 797.09Z" fill="#67505A"/>
<path d="M610.769 343.292L610.623 346.966L610.477 350.824C610.331 353.396 610.185 356.152 610.039 358.724C609.6 364.052 609.308 369.197 608.724 374.525C608.432 377.097 608.286 379.853 607.994 382.425C607.702 384.997 607.41 387.569 607.118 390.325C606.534 395.469 605.803 400.613 605.073 405.758C604.343 410.902 603.467 415.863 602.591 420.823C602.152 423.211 601.568 425.784 601.13 428.172C600.546 430.56 600.108 432.949 599.524 435.154C598.355 439.747 597.041 444.156 595.727 448.382C594.266 452.424 592.806 456.282 591.199 459.405C589.593 462.528 587.987 464.917 586.672 466.387C586.088 467.121 585.504 467.673 585.066 467.856L584.92 468.04H584.774C584.482 468.224 584.044 468.408 583.751 468.591L583.167 468.959L582.583 469.326C582.145 469.51 581.853 469.694 581.415 469.877C579.808 470.612 578.056 471.347 576.303 472.082C574.551 472.817 572.652 473.368 570.608 473.919C566.665 475.205 562.722 476.308 558.633 477.226C554.544 478.145 550.308 479.247 546.073 479.982C544.029 480.35 541.838 480.901 539.794 481.268C537.603 481.636 535.558 482.187 533.368 482.554C529.133 483.289 524.751 484.024 520.516 484.759L507.665 486.78H507.227C498.61 488.25 492.623 498.171 493.645 508.827C494.667 518.38 500.947 525.546 508.395 525.913L510.148 526.097H511.9C513.068 526.097 514.237 526.281 515.405 526.281C517.742 526.281 519.932 526.464 522.269 526.464C526.796 526.464 531.469 526.464 535.997 526.281C538.333 526.281 540.67 526.097 542.86 525.913C545.197 525.729 547.534 525.546 549.87 525.362C554.544 524.994 559.217 524.627 563.89 523.892C568.563 523.157 573.383 522.422 578.202 521.504C583.021 520.401 587.987 519.115 593.244 517.278C593.974 517.094 594.558 516.727 595.289 516.543L596.311 516.176L597.333 515.808C598.063 515.441 598.793 515.257 599.378 514.89H599.524H599.67L599.962 514.706L600.692 514.339C601.13 514.155 601.568 513.787 602.006 513.604C605.511 511.583 608.87 509.01 611.645 506.255C617.34 500.743 621.43 494.496 624.935 488.25C628.293 482.003 630.922 475.94 633.259 469.877C635.449 463.814 637.348 457.752 638.954 451.689C639.831 448.749 640.561 445.626 641.291 442.686C642.021 439.747 642.605 436.623 643.189 433.684C644.358 427.805 645.526 421.742 646.402 415.863C647.279 409.983 648.155 404.104 648.885 398.225C649.177 395.285 649.615 392.346 649.907 389.406C650.199 386.467 650.491 383.527 650.784 380.588C651.222 374.708 651.66 368.829 651.952 362.95C652.098 360.01 652.244 357.071 652.39 354.131L652.536 349.722V347.517V344.945C652.828 330.431 643.628 318.489 632.09 318.121C620.845 317.938 611.499 328.777 610.915 342.74L610.769 343.292Z" fill="#FFAA8C"/>
<path d="M513.797 483.472C513.797 483.472 519.201 505.335 515.842 522.973C513.797 524.81 510.584 525.729 508.102 524.994C508.102 524.994 511.461 505.519 506.057 483.472C508.54 482.186 511.168 482.186 513.797 483.472Z" fill="#35252F"/>
<path d="M513.36 522.789C507.875 522.789 503.429 517.196 503.429 510.296C503.429 503.396 507.875 497.803 513.36 497.803C518.844 497.803 523.291 503.396 523.291 510.296C523.291 517.196 518.844 522.789 513.36 522.789Z" fill="#35252F"/>
<path d="M513.798 519.115C517.741 518.748 520.661 514.522 520.515 509.561C520.223 504.601 516.864 500.926 512.921 501.11C508.978 501.478 506.058 505.703 506.204 510.664C506.496 515.624 510.001 519.483 513.798 519.115Z" fill="white"/>
<path d="M603.467 482.738C603.613 482.738 603.759 482.738 603.905 482.554C604.197 482.186 604.197 481.635 603.905 481.268C597.479 472.265 587.257 466.754 586.818 466.57C586.38 466.386 586.088 466.57 585.796 467.121C585.65 467.672 585.796 468.04 586.234 468.407C586.38 468.407 596.603 473.919 602.737 482.738C603.029 482.738 603.175 482.738 603.467 482.738Z" fill="#D0886F"/>
<path d="M601.86 471.163C602.152 471.163 602.444 470.796 602.59 470.428C602.736 469.877 602.444 469.51 602.006 469.326C601.714 469.142 593.535 466.937 587.986 467.305C587.548 467.305 587.256 467.856 587.256 468.224C587.256 468.775 587.694 469.142 587.986 469.142C593.243 468.775 601.568 471.163 601.568 471.163C601.86 471.163 601.86 471.163 601.86 471.163Z" fill="#D0886F"/>
<path d="M657.355 347.149C657.209 359.459 654.434 402.45 649.03 425.232L601.567 414.209C601.567 414.209 607.117 367.543 609.162 338.514C609.746 329.144 613.689 320.509 619.968 315.181C624.204 311.691 629.753 309.302 636.617 310.956C650.345 314.263 655.164 330.614 656.77 338.882C657.209 341.821 657.355 344.393 657.355 347.149Z" fill="#605BFF"/>
<path d="M649.031 426.151C649.323 426.151 649.615 425.967 649.761 425.6C658.523 390.876 657.793 355.969 657.793 355.601C657.793 355.05 657.501 354.683 657.063 354.683C656.625 354.683 656.333 355.05 656.333 355.601C656.333 355.969 657.063 390.509 648.301 425.049C648.155 425.6 648.447 425.967 648.739 426.151C648.885 426.151 648.885 426.151 649.031 426.151Z" fill="white"/>
<path d="M601.568 415.127C601.86 415.127 602.152 414.759 602.298 414.392C605.073 394.55 608.87 350.823 608.87 350.456C608.87 349.905 608.578 349.537 608.286 349.354C607.848 349.354 607.556 349.721 607.41 350.088C607.41 350.456 603.613 394.182 600.838 413.841C600.692 414.575 600.984 415.127 601.568 415.127C601.422 415.127 601.568 415.127 601.568 415.127Z" fill="white"/>
<path d="M674.44 779.27H543.443C540.376 779.27 537.893 776.146 537.893 772.288C537.893 768.43 540.376 765.307 543.443 765.307H674.44C677.507 765.307 679.99 768.43 679.99 772.288C679.99 776.146 677.507 779.27 674.44 779.27Z" fill="#A4A4A4"/>
<path d="M531.322 885.83C531.03 885.83 530.884 885.83 530.592 885.83C527.525 885.278 525.48 881.788 525.773 877.93L549.723 653.786C550.161 650.296 552.498 647.724 555.273 647.724H662.173C664.948 647.724 667.285 650.296 667.723 653.786L691.235 878.113C691.673 881.971 689.483 885.462 686.416 886.013C683.349 886.565 680.574 883.809 680.136 879.951L657.208 661.87H559.946L536.726 880.134C536.433 883.441 534.097 885.83 531.322 885.83Z" fill="#FFD66B"/>
<path d="M586.233 654.705H655.748C677.8 654.705 701.312 639.639 704.671 612.264C709.199 575.703 710.367 540.245 709.053 507.726C707.592 470.981 692.696 436.808 669.622 414.026C669.622 414.026 686.855 525.363 674.295 594.994C666.993 634.679 586.233 654.705 586.233 654.705Z" fill="#FFD66B"/>
<path d="M404.415 528.117H571.922C572.36 528.117 572.652 527.75 572.652 527.199C572.652 520.585 568.417 515.44 563.306 515.44H404.561C404.123 515.44 403.831 515.808 403.831 516.359V527.382C403.685 527.75 404.123 528.117 404.415 528.117Z" fill="#A4A4A4"/>
<path d="M348.034 410.873L368.918 522.21C369.502 525.149 371.546 527.354 374.029 527.354H502.836C506.195 527.354 508.678 523.312 507.947 519.27L487.064 407.933C486.48 404.994 484.435 402.789 481.952 402.789H353.146C349.787 402.789 347.304 406.831 348.034 410.873Z" fill="#A4A4A4"/>
<path d="M415.818 465.515C417.133 474.334 423.85 481.315 430.714 481.315C437.578 481.315 442.251 474.15 440.937 465.515C439.623 456.696 432.905 449.715 426.041 449.715C419.177 449.715 414.504 456.696 415.818 465.515Z" fill="#FFD66B"/>
<path d="M477.289 403.553L499.487 527.934H503.284C506.643 527.934 509.125 523.892 508.395 519.85L487.512 408.513C486.927 405.574 484.883 403.369 482.4 403.369H477.289V403.553Z" fill="#A4A4A4"/>
<path d="M223.617 536.936V545.571C223.617 550.532 226.976 554.574 231.065 554.574H744.686C748.775 554.574 752.134 550.532 752.134 545.571V536.936C752.134 531.976 748.775 527.934 744.686 527.934H231.065C226.83 527.934 223.617 531.976 223.617 536.936Z" fill="#28C2FF"/>
<path d="M251.949 576.437H708.907C718.253 576.437 725.701 566.883 725.701 555.308V554.39H235.009V555.308C235.155 566.883 242.603 576.437 251.949 576.437Z" fill="#28C2FF"/>
<path d="M244.648 685.568H709.492V700.817H244.648V685.568Z" fill="#28C2FF"/>
<path d="M731.689 888.583L671.813 576.437H692.843L752.719 888.583H731.689Z" fill="#28C2FF"/>
<path d="M225.078 888.583L284.955 576.437H263.925L204.049 888.583H225.078Z" fill="#28C2FF"/>
<path d="M223.472 541.162H751.989V545.02H223.472V541.162Z" fill="#1B48CA"/>
<path d="M705.024 456.055L711.52 457.307L704.002 519.054L697.506 517.803L705.024 456.055Z" fill="#FAB623"/>
<path d="M705.029 456.1L711.455 457.386L709.994 451.139L709.264 447.832L707.804 450.588L705.029 456.1Z" fill="#FF8C64"/>
<path d="M698.022 513.407L704.518 514.659L703.965 519.199L697.469 517.948L698.022 513.407Z" fill="#35252F"/>
<path d="M697.435 521.506L703.13 522.608C703.422 522.608 703.568 522.424 703.568 522.057L704.007 518.934L697.435 517.647L696.997 520.771C696.997 521.138 697.143 521.506 697.435 521.506Z" fill="#EF452F"/>
<path d="M707.805 450.588L709.995 451.139L709.265 447.832L707.805 450.588Z" fill="#35252F"/>
<path d="M704.501 514.663L698.004 513.411L698.402 510.142L704.899 511.394L704.501 514.663Z" fill="#F68407"/>
<path d="M709.556 460.141L704.007 505.888C704.007 506.256 703.714 506.44 703.422 506.44C703.13 506.44 702.984 506.072 702.984 505.705L708.534 459.957C708.534 459.59 708.826 459.406 709.118 459.406C709.41 459.406 709.556 459.774 709.556 460.141Z" fill="#F68407"/>
<path d="M706.927 459.59L701.378 505.338C701.378 505.705 701.086 505.889 700.794 505.889C700.502 505.889 700.355 505.521 700.355 505.154L705.905 459.407C705.905 459.039 706.197 458.855 706.489 458.855C706.781 458.855 706.927 459.223 706.927 459.59Z" fill="#F68407"/>
<path d="M693.277 456.271L699.849 456.298L699.687 518.764L693.116 518.737L693.277 456.271Z" fill="#4F9D5C"/>
<path d="M693.2 456.282L699.771 456.465L697.581 450.402L696.559 447.463L695.39 450.402L693.2 456.282Z" fill="#FF8C64"/>
<path d="M693.056 514.327L699.628 514.354L699.616 518.947L693.045 518.92L693.056 514.327Z" fill="#35252F"/>
<path d="M693.491 522.424H699.187C699.479 522.424 699.625 522.24 699.625 521.872V518.749H693.053V521.872C693.053 522.24 693.199 522.424 693.491 522.424Z" fill="#EF452F"/>
<path d="M695.389 450.404H697.579L696.557 447.465L695.389 450.404Z" fill="#35252F"/>
<path d="M699.63 514.355L693.059 514.328L693.067 511.021L699.639 511.048L699.63 514.355Z" fill="#3C7341"/>
<path d="M698.166 459.406L698.02 505.704C698.02 506.072 697.728 506.255 697.582 506.255C697.289 506.255 697.143 505.888 697.143 505.704L697.29 459.406C697.29 459.038 697.582 458.854 697.728 458.854C697.874 458.854 698.166 459.038 698.166 459.406Z" fill="#3C7341"/>
<path d="M695.535 459.407L695.389 505.705C695.389 506.072 695.097 506.256 694.951 506.256C694.659 506.256 694.513 505.889 694.513 505.705L694.659 459.407C694.659 459.039 694.951 458.855 695.097 458.855C695.389 458.855 695.535 459.039 695.535 459.407Z" fill="#3C7341"/>
<path d="M681.833 457.222L688.339 456.059L695.326 517.906L688.819 519.07L681.833 457.222Z" fill="#1B6BFE"/>
<path d="M681.81 457.202L688.382 456.1L685.607 450.588L684.147 447.832L683.27 450.955L681.81 457.202Z" fill="#FF8C64"/>
<path d="M688.291 514.628L694.797 513.465L695.311 518.012L688.804 519.176L688.291 514.628Z" fill="#35252F"/>
<path d="M689.695 522.608L695.391 521.506C695.683 521.506 695.829 521.138 695.829 520.954L695.537 517.831L688.965 518.933L689.257 522.057C689.257 522.424 689.403 522.608 689.695 522.608Z" fill="#EF452F"/>
<path d="M683.269 450.955L685.606 450.588L684.146 447.832L683.269 450.955Z" fill="#35252F"/>
<path d="M694.839 513.333L688.332 514.496L687.962 511.222L694.469 510.059L694.839 513.333Z" fill="#1B48CA"/>
<path d="M687.066 459.407L692.178 505.154C692.178 505.521 692.032 505.889 691.74 505.889C691.448 505.889 691.156 505.705 691.156 505.338L686.044 459.59C686.044 459.223 686.19 458.855 686.482 458.855C686.774 458.855 687.066 459.039 687.066 459.407Z" fill="#1B48CA"/>
<path d="M684.583 459.957L689.695 505.705C689.695 506.072 689.549 506.44 689.257 506.44C688.965 506.44 688.673 506.256 688.673 505.888L683.561 460.141C683.561 459.774 683.707 459.406 683.999 459.406C684.291 459.223 684.437 459.59 684.583 459.957Z" fill="#1B48CA"/>
<path d="M679.618 481.086L680.056 484.393L680.348 487.516L680.786 492.109L681.078 495.049L681.662 499.826L681.954 502.765L682.392 507.358L682.684 510.298L683.123 515.075L683.415 518.014L683.999 522.791L684.291 525.547L684.583 528.119H710.432L710.724 525.547L711.016 522.791L711.454 518.014L711.746 515.075L712.184 510.298L712.476 507.358L713.061 502.765L713.353 499.826L713.791 495.049L714.083 492.109L714.521 487.516L714.813 484.393L715.251 481.086H679.618Z" fill="#EF452F"/>
<path d="M680.057 484.393L680.349 487.516H714.522L714.814 484.393H680.057Z" fill="#AD2F24"/>
<path d="M680.786 492.109L681.078 495.049H713.791L714.083 492.109H680.786Z" fill="#AD2F24"/>
<path d="M681.662 499.823L681.955 502.763H713.061L713.353 499.823H681.662Z" fill="#AD2F24"/>
<path d="M682.393 507.358L682.685 510.298H712.185L712.477 507.358H682.393Z" fill="#AD2F24"/>
<path d="M683.123 515.075L683.415 518.015H711.455L711.747 515.075H683.123Z" fill="#AD2F24"/>
<path d="M684 522.789L684.292 525.545H710.726L711.018 522.789H684Z" fill="#AD2F24"/>
<path d="M247.422 479.983H303.355V490.088H247.422V479.983Z" fill="#FAB623"/>
<path d="M246.546 519.667C252.242 528.119 268.452 528.302 273.709 528.119C274.732 528.119 275.316 528.119 275.316 528.119C275.316 528.119 297.222 529.956 304.086 519.667C307.883 513.788 305.838 505.153 303.209 498.723C302.625 497.253 301.895 495.783 301.311 494.497C299.996 491.741 298.974 490.088 298.974 490.088H251.657C251.657 490.088 249.467 493.762 247.422 498.539C244.94 505.153 242.749 513.788 246.546 519.667Z" fill="#FAB623"/>
<path d="M293.425 511.767C295.761 521.137 286.999 528.302 275.316 527.935C275.316 527.935 297.222 529.772 304.086 519.484C307.883 513.605 305.838 504.97 303.209 498.539C303.209 498.355 303.063 498.172 303.063 498.172C303.063 497.988 302.917 497.804 302.917 497.804C302.479 496.702 301.895 495.6 301.457 494.497C300.143 491.741 299.12 490.088 299.12 490.088H251.803C251.803 490.088 249.613 493.762 247.568 498.539H268.744C274.001 498.539 279.259 499.825 284.224 502.214C288.313 504.418 292.402 507.542 293.425 511.767Z" fill="#F68407"/>
<path d="M255.6 470.979C256.184 472.265 256.914 473.368 257.498 474.286C259.397 477.593 261.003 479.798 261.149 479.982H289.627C289.773 479.798 291.233 477.593 293.278 474.286C293.862 473.184 294.592 472.082 295.177 470.979C298.682 464.365 302.332 455.546 301.31 448.932C301.018 446.911 300.58 445.442 299.85 444.523C299.558 443.972 299.266 443.604 298.828 443.421C295.761 441.216 291.087 446.36 289.627 446.176C287.582 445.993 290.941 433.316 295.615 424.313C299.996 415.862 302.771 404.839 297.513 400.797C297.367 400.613 297.075 400.429 296.929 400.429C296.783 400.246 296.491 400.246 296.345 400.062C289.481 396.939 286.998 408.513 284.078 406.86C281.157 405.206 290.065 367.91 276.191 367.91C276.045 367.91 275.753 367.91 275.461 367.91C275.169 367.91 275.023 367.91 274.731 367.91C260.857 367.91 269.766 405.39 266.845 406.86C263.924 408.513 261.587 396.755 254.578 400.062C254.432 400.246 254.139 400.246 253.993 400.429C253.847 400.613 253.555 400.613 253.409 400.797C248.006 404.839 250.927 416.046 255.308 424.313C259.981 433.316 263.194 445.809 261.295 446.176C259.835 446.36 255.162 441.032 252.095 443.421C251.803 443.604 251.365 443.972 251.073 444.523C250.488 445.442 250.05 446.911 249.612 448.932C248.444 455.546 252.095 464.365 255.6 470.979Z" fill="#4F9D5C"/>
<path d="M274.731 367.912V479.984H276.045V367.912C275.899 367.912 275.607 367.912 275.315 367.912C275.169 367.912 274.877 367.912 274.731 367.912Z" fill="#3C7341"/>
<path d="M274.877 432.216L275.315 432.767L275.753 433.318L275.899 433.134L297.805 401.35L297.221 400.799C297.075 400.615 296.783 400.432 296.637 400.432L275.899 430.562L275.169 431.481L274.877 432.216Z" fill="#3C7341"/>
<path d="M274.876 478.145L275.315 478.696L275.753 479.247L275.899 479.063L299.703 444.523C299.411 443.972 299.119 443.605 298.681 443.421L275.899 476.491L275.168 477.41L274.876 478.145Z" fill="#3C7341"/>
<path d="M252.826 401.166L274.732 432.95L274.878 433.134L275.316 432.582L275.754 432.031L275.316 431.296L274.586 430.378L253.848 400.247C253.702 400.431 253.41 400.431 253.264 400.615L252.826 401.166Z" fill="#3C7341"/>
<path d="M250.781 444.34L274.586 478.88L274.732 479.063L275.17 478.512L275.608 477.961L275.17 477.226L274.439 476.308L251.657 443.237C251.511 443.605 251.219 443.972 250.781 444.34Z" fill="#3C7341"/>
<path opacity="0.2" d="M831.282 892.945C790.912 892.945 758.185 889.083 758.185 884.319C758.185 879.555 790.912 875.693 831.282 875.693C871.653 875.693 904.38 879.555 904.38 884.319C904.38 889.083 871.653 892.945 831.282 892.945Z" fill="#605BFF"/>
<path d="M778.923 846.72L767.598 591.257H898.644L887.172 846.72H778.923Z" fill="#1B48CA"/>
<path d="M768.627 615.364L897.025 626.423L897.908 606.296H768.186L768.627 615.364Z" fill="#28C2FF"/>
<path d="M763.184 606.296H902.908C904.82 606.296 906.438 603.863 906.438 600.988V589.265C906.438 586.39 904.82 583.957 902.908 583.957H763.184C761.272 583.957 759.654 586.39 759.654 589.265V600.988C759.654 603.863 761.272 606.296 763.184 606.296Z" fill="#605BFF"/>
<path d="M782.305 647.217L785.54 732.592H880.699L883.935 647.217H782.305Z" fill="#28C2FF"/>
<path d="M833.046 700.518C830.447 700.518 828.34 697.349 828.34 693.44C828.34 689.531 830.447 686.362 833.046 686.362C835.646 686.362 837.753 689.531 837.753 693.44C837.753 697.349 835.646 700.518 833.046 700.518Z" fill="#1B48CA"/>
<path d="M786.717 752.719L789.658 830.353H876.434L879.376 752.719H786.717Z" fill="#28C2FF"/>
<path d="M833.046 801.379C830.447 801.379 828.34 798.21 828.34 794.301C828.34 790.392 830.447 787.224 833.046 787.224C835.646 787.224 837.753 790.392 837.753 794.301C837.753 798.21 835.646 801.379 833.046 801.379Z" fill="#1B48CA"/>
<path d="M847.02 846.722C847.314 846.722 847.608 846.722 847.755 846.722C860.845 846.943 872.17 860.656 875.111 879.456L875.994 884.765H886.142L887.172 846.722H847.02Z" fill="#28C2FF"/>
<path d="M819.076 846.721C818.782 846.721 818.487 846.721 818.34 846.721C805.25 846.942 793.925 860.655 790.984 879.455L790.101 884.764H779.953L778.924 846.721H819.076Z" fill="#28C2FF"/>
<path d="M859.226 456.336C859.226 456.336 870.698 461.202 883.347 436.651C892.466 418.736 908.644 380.693 931 380.029C931 380.029 904.526 362.777 881.141 380.25C857.608 397.945 845.107 443.508 859.226 456.336Z" fill="#4F9D5C"/>
<path d="M852.315 527.556C852.609 527.556 852.903 527.114 852.903 526.671C852.903 526.45 852.167 502.563 855.256 475.579C858.198 450.585 864.963 417.851 881.289 402.589C881.583 402.368 881.73 401.704 881.436 401.262C881.289 400.82 880.848 400.599 880.553 401.041C873.2 407.898 867.169 418.735 862.463 433.554C858.786 445.277 855.844 459.211 854.079 475.358C850.844 502.563 851.726 526.671 851.726 526.892C851.726 527.114 852.02 527.556 852.315 527.556Z" fill="#3C7341"/>
<path d="M850.402 401.925C850.402 401.925 838.783 397.944 835.694 366.979C833.488 344.639 831.576 299.519 812.309 282.709C812.309 282.709 841.136 286.911 855.844 319.425C870.551 351.938 866.875 401.04 850.402 401.925Z" fill="#4F9D5C"/>
<path d="M834.517 529.548C834.811 529.548 834.958 529.327 835.105 528.884C835.253 528.663 842.901 496.813 848.489 457.664C851.725 434.661 853.784 413.649 854.225 395.07C854.961 371.846 853.343 352.604 849.666 338.006C849.519 337.563 849.225 337.342 848.931 337.563C848.637 337.785 848.489 338.227 848.637 338.669C856.873 371.625 852.461 421.391 847.313 457.222C841.724 496.371 834.076 528 834.076 528.221C833.929 528.663 834.076 529.327 834.37 529.327C834.37 529.548 834.37 529.548 834.517 529.548Z" fill="#3C7341"/>
<path d="M830.105 416.966C830.105 416.966 818.339 419.399 808.043 392.194C800.689 372.509 788.188 331.59 766.126 326.061C766.126 326.061 794.071 314.559 815.544 336.899C837.165 359.68 845.254 407.234 830.105 416.966Z" fill="#4F9D5C"/>
<path d="M828.339 529.546C828.633 529.546 828.928 529.325 828.928 528.883C828.928 528.662 832.899 498.581 832.899 462.75C832.899 441.738 831.722 422.716 829.222 406.349C826.133 386 820.985 369.633 814.073 357.689C813.779 357.247 813.484 357.247 813.19 357.689C812.896 358.132 812.896 358.574 813.19 359.016C828.633 385.337 831.869 429.794 831.722 462.75C831.575 498.36 827.751 528.219 827.751 528.44C827.604 528.883 827.898 529.325 828.339 529.546C828.192 529.546 828.339 529.546 828.339 529.546Z" fill="#3C7341"/>
<path d="M809.808 458.547C809.808 458.547 798.483 464.519 784.952 440.853C775.098 423.822 757.449 387.327 735.093 388.654C735.093 388.654 760.831 368.969 784.952 384.673C809.073 400.156 823.339 444.613 809.808 458.547Z" fill="#4F9D5C"/>
<path d="M820.839 529.546C821.133 529.546 821.427 529.104 821.427 528.662C821.427 528.44 821.722 507.871 817.603 482.435C815.103 467.616 811.72 453.903 807.308 441.959C801.719 426.919 794.659 414.533 786.276 405.243C785.982 405.022 785.688 405.022 785.393 405.464C785.246 405.906 785.246 406.349 785.541 406.791C804.219 427.803 812.603 459.874 816.427 483.098C820.545 508.313 820.251 528.44 820.251 528.662C820.251 529.104 820.398 529.546 820.839 529.546Z" fill="#3C7341"/>
<path d="M784.217 550.779C784.217 553.434 784.512 556.088 785.1 558.963C787.453 570.907 794.219 579.754 802.455 581.523C822.458 585.726 843.048 585.505 864.228 581.302C873.493 579.533 880.994 568.916 882.465 554.982C882.759 552.549 882.759 550.337 882.612 547.904C882.171 539.942 879.377 532.2 874.082 524.459H792.748C786.865 532.864 784.217 541.711 784.217 550.779Z" fill="#FFD66B"/>
<path d="M830.399 562.944C856.285 562.944 873.052 555.424 882.465 549.01C882.759 548.789 882.906 548.346 882.759 547.904C882.612 547.462 882.318 547.241 882.024 547.462C872.611 553.655 856.138 561.175 830.399 561.175C812.162 561.175 796.866 557.415 784.952 550.116C784.658 549.895 784.217 550.116 784.217 550.558C784.07 551.001 784.217 551.664 784.511 551.664C796.572 559.184 812.015 562.944 830.399 562.944Z" fill="#F68407"/>
<path d="M54.5667 277.181H64.2739V428.468H54.5667V277.181Z" fill="#F2B441"/>
<path d="M54.4198 284.479V297.528L64.274 301.952V284.479H54.4198Z" fill="#F28D32"/>
<path d="M6.47149 281.825C41.623 290.009 76.9216 290.009 112.073 281.825L87.0699 177.649C68.5381 172.784 50.0064 172.784 31.6217 177.649L6.47149 281.825Z" fill="#1B6BFE"/>
<path d="M59.7135 273.863C75.7449 273.863 91.6293 272.536 108.102 270.103C108.69 270.103 108.984 269.218 108.984 268.555C108.984 267.67 108.396 267.228 107.955 267.228C75.4509 272.315 44.5646 272.315 10.8839 267.228C10.2956 267.228 9.8543 267.67 9.8543 268.555C9.8543 269.439 10.1484 270.103 10.7367 270.103C27.5036 272.536 43.6821 273.863 59.7135 273.863Z" fill="#1B48CA"/>
<path d="M94.4235 271.873C94.5706 271.873 94.5706 271.873 94.7177 271.873C95.306 271.652 95.6002 270.767 95.4531 270.103L80.01 176.986C79.8629 176.102 79.2745 175.659 78.8333 175.881C78.245 176.102 77.9508 176.986 78.0979 177.65L93.541 270.767C93.541 271.43 93.9823 271.873 94.4235 271.873Z" fill="#1B48CA"/>
<path d="M24.12 271.873C24.5612 271.873 25.0024 271.43 25.1495 270.767L40.4455 177.65C40.5926 176.765 40.2985 176.102 39.7102 175.881C39.1218 175.659 38.6806 176.102 38.5336 176.986L23.2375 270.103C23.0904 270.988 23.3845 271.652 23.9729 271.873C23.9729 271.873 23.9729 271.873 24.12 271.873Z" fill="#1B48CA"/>
<path d="M59.2714 273.863C59.8597 273.863 60.301 273.199 60.301 272.314V175.659C60.301 174.774 59.8597 174.11 59.2714 174.11C58.6831 174.11 58.2419 174.774 58.2419 175.659V272.536C58.389 273.199 58.8302 273.863 59.2714 273.863Z" fill="#1B48CA"/>
<path d="M35.4473 413.428V428.469H83.2474V413.428L59.2738 405.023L35.4473 413.428Z" fill="#1B48CA"/>
<path d="M92.3643 408.562H90.5994V404.581L156.049 404.802C158.255 404.802 160.167 406.129 161.638 408.341C163.109 410.553 163.991 413.428 163.991 416.746C163.991 423.381 160.461 428.468 156.049 428.468L90.5994 428.247V424.93H92.3643V408.562Z" fill="#4F9D5C"/>
<path d="M91.925 408.562V424.93L151.933 425.151C154.874 425.151 157.227 421.391 157.227 416.967C157.227 414.756 156.639 412.765 155.61 411.217C154.58 409.668 153.256 408.784 151.786 408.784L91.925 408.562Z" fill="white"/>
<path d="M91.925 412.766V415.199L150.462 415.42C150.903 415.42 151.344 414.756 151.344 414.093C151.344 413.429 150.903 412.766 150.462 412.766H91.925Z" fill="#EAD6BF"/>
<path d="M91.925 418.958V421.391L150.462 421.612C150.903 421.612 151.344 420.949 151.344 420.285C151.344 419.622 150.903 418.958 150.462 418.958H91.925Z" fill="#EAD6BF"/>
<path d="M98.2475 384.896H96.4825V380.915L161.932 381.136C164.138 381.136 166.05 382.463 167.521 384.675C168.992 386.887 169.874 389.762 169.874 393.08C169.874 399.715 166.344 404.803 161.932 404.803L96.4825 404.581V401.264H98.2475V384.896Z" fill="#EF452F"/>
<path d="M97.8068 384.896V401.263L157.814 401.484C160.756 401.484 163.109 397.724 163.109 393.3C163.109 391.089 162.521 389.098 161.491 387.55C160.462 386.001 159.138 385.117 157.667 385.117L97.8068 384.896Z" fill="white"/>
<path d="M97.8087 389.1V391.533L156.346 391.754C156.787 391.754 157.228 391.09 157.228 390.427C157.228 389.763 156.787 389.1 156.346 389.1H97.8087Z" fill="#EAD6BF"/>
<path d="M97.8087 395.292V397.725L156.346 397.946C156.787 397.946 157.228 397.283 157.228 396.619C157.228 395.956 156.787 395.292 156.346 395.292H97.8087Z" fill="#EAD6BF"/>
<path d="M86.9236 361.23H85.1588V357.249L150.608 357.47C152.814 357.47 154.726 358.797 156.197 361.009C157.668 363.221 158.55 366.096 158.55 369.414C158.55 376.049 155.021 381.136 150.608 381.136L85.1588 380.915V377.598H86.9236V361.23Z" fill="#1B6BFE"/>
<path d="M86.4813 361.229V377.597L146.489 377.818C149.43 377.818 151.784 374.058 151.784 369.634C151.784 367.423 151.195 365.432 150.166 363.884C149.136 362.335 147.813 361.451 146.342 361.451L86.4813 361.229Z" fill="white"/>
<path d="M86.4817 365.434V367.867L145.018 368.088C145.46 368.088 145.901 367.424 145.901 366.761C145.901 366.097 145.46 365.434 145.018 365.434H86.4817Z" fill="#EAD6BF"/>
<path d="M86.4817 371.626V374.059L145.018 374.28C145.46 374.28 145.901 373.617 145.901 372.953C145.901 372.29 145.46 371.626 145.018 371.626H86.4817Z" fill="#EAD6BF"/>
<path opacity="0.2" d="M91.9233 896.043C41.1554 896.043 -0.000137329 890.596 -0.000137329 883.878C-0.000137329 877.159 41.1554 871.713 91.9233 871.713C142.691 871.713 183.847 877.159 183.847 883.878C183.847 890.596 142.691 896.043 91.9233 896.043Z" fill="#605BFF"/>
<path d="M11.7659 437.536L31.7684 884.32H152.225L172.227 437.536H11.7659Z" fill="#1B48CA"/>
<path d="M13.0896 466.953L170.315 480.666L171.492 455.894H12.5012L13.0896 466.953Z" fill="#28C2FF"/>
<path d="M5.73645 455.894H178.258C180.317 455.894 181.935 453.461 181.935 450.365V433.997C181.935 430.901 180.317 428.468 178.258 428.468H5.73645C3.67737 428.468 2.05952 430.901 2.05952 433.997V450.365C2.05952 453.461 3.67737 455.894 5.73645 455.894Z" fill="#605BFF"/>
<path d="M29.7104 506.323L33.6815 610.72H150.314L154.285 506.323H29.7104Z" fill="#28C2FF"/>
<path d="M91.9234 571.792C88.6743 571.792 86.0403 567.831 86.0403 562.945C86.0403 558.059 88.6743 554.098 91.9234 554.098C95.1726 554.098 97.8065 558.059 97.8065 562.945C97.8065 567.831 95.1726 571.792 91.9234 571.792Z" fill="#1B48CA"/>
<path d="M35.152 635.271L38.829 730.6H145.166L148.843 635.271H35.152Z" fill="#28C2FF"/>
<path d="M91.9234 695.433C88.6743 695.433 86.0403 691.472 86.0403 686.585C86.0403 681.699 88.6743 677.738 91.9234 677.738C95.1726 677.738 97.8065 681.699 97.8065 686.585C97.8065 691.472 95.1726 695.433 91.9234 695.433Z" fill="#1B48CA"/>
<path d="M39.8586 754.709L43.2415 842.296H140.754L143.989 754.709H39.8586Z" fill="#28C2FF"/>
<path d="M91.9234 807.349C88.6743 807.349 86.0403 803.388 86.0403 798.502C86.0403 793.615 88.6743 789.654 91.9234 789.654C95.1726 789.654 97.8065 793.615 97.8065 798.502C97.8065 803.388 95.1726 807.349 91.9234 807.349Z" fill="#1B48CA"/>
<path d="M296.242 148.256C332.013 148.256 361.01 117.091 361.01 78.6465C361.01 40.2023 332.013 9.03711 296.242 9.03711C260.472 9.03711 231.474 40.2023 231.474 78.6465C231.474 117.091 260.472 148.256 296.242 148.256Z" fill="#FFCDB3"/>
<path d="M296.243 139.219C332.013 139.219 361.01 108.054 361.01 69.6094C361.01 31.1652 332.013 0 296.243 0C260.472 0 231.475 31.1652 231.475 69.6094C231.475 108.054 260.472 139.219 296.243 139.219Z" fill="#EF452F"/>
<path d="M296.241 126.272C325.329 126.272 348.964 100.871 348.964 69.6078C348.964 38.3447 325.329 12.9434 296.241 12.9434C267.152 12.9434 243.517 38.3447 243.517 69.6078C243.517 100.871 267.152 126.272 296.241 126.272Z" fill="white"/>
<path d="M243.517 69.6079C243.517 71.0733 243.517 72.5388 243.744 74.0042C245.79 44.9393 268.743 21.7361 296.241 21.7361C323.966 21.7361 346.691 44.695 348.737 74.0042C348.737 72.5388 348.964 71.0733 348.964 69.6079C348.964 38.3447 325.329 12.9434 296.241 12.9434C267.152 12.9434 243.517 38.3447 243.517 69.6079Z" fill="#FFDECB"/>
<path d="M296.242 75.4715C296.696 75.4715 297.151 75.2273 297.378 74.983L323.285 37.6138C323.74 36.881 323.513 36.1483 323.058 35.6598C322.376 35.1713 321.695 35.4156 321.24 35.9041L296.015 72.5406L267.153 58.863C266.471 58.6187 265.79 58.863 265.335 59.5957C265.108 60.3284 265.335 61.0611 266.017 61.5496L295.56 75.4715C295.787 75.4715 296.015 75.4715 296.242 75.4715Z" fill="#35252F"/>
</svg>
