<svg width="33" height="33" viewBox="0 0 33 33" fill="none" xmlns="http://www.w3.org/2000/svg">
<g opacity="0.4">
<path fill-rule="evenodd" clip-rule="evenodd" d="M12.5448 15.1861C11.8734 15.1858 11.3404 15.7288 11.338 16.416C11.3355 17.0872 11.8644 17.6468 12.5359 17.6472L21.9055 17.6525L21.8778 25.2912C21.8636 29.2065 18.7444 32.4008 14.9029 32.3987L7.29793 32.3944C3.47203 32.3922 0.375991 29.2103 0.390191 25.2951L0.454583 7.54055C0.468841 3.60931 3.60356 0.43093 7.42946 0.43309L15.05 0.437394C18.8603 0.439545 21.9564 3.62145 21.9422 7.53671L21.9144 15.1914L12.5448 15.1861ZM27.546 10.9144L32.0141 15.5684C32.2436 15.8083 32.3654 16.1121 32.3642 16.4477C32.363 16.7674 32.239 17.0871 32.0078 17.3107L27.5058 21.9596C27.2745 22.1992 26.9669 22.3269 26.675 22.3268C26.3678 22.3266 26.0611 22.1985 25.8316 21.9586C25.3725 21.4788 25.3754 20.6956 25.8379 20.2163L28.3047 17.6762L21.9458 17.6726L21.9547 15.211L28.3137 15.2146L25.8654 12.6717C25.4063 12.1919 25.4092 11.4087 25.8717 10.9294C26.3343 10.4342 27.0869 10.4346 27.546 10.9144Z" fill="#030229"/>
</g>
</svg>
