  <svg width="25" height="19" viewBox="0 0 25 19" fill="none" xmlns="http://www.w3.org/2000/svg">
<path fill-rule="evenodd" clip-rule="evenodd" d="M23.9361 7.81206C23.7745 7.94493 23.5545 8.02173 23.3224 8.02333C22.4636 8.02925 21.7712 8.59869 21.7759 9.28568C21.7807 9.97737 22.4728 10.5344 23.3235 10.5361C23.8028 10.5366 24.212 10.8048 24.2147 11.1935L24.2313 13.6073C24.2453 15.6391 22.2258 17.3009 19.719 17.3182L15.9358 17.3442C15.5447 17.3469 15.2261 17.0922 15.2239 16.7751L15.2099 14.7423C15.2072 14.3471 14.8221 14.0392 14.3346 14.0425C13.8588 14.0458 13.4664 14.3591 13.4691 14.7543L13.4831 16.7871C13.4853 17.1042 13.1703 17.3633 12.7803 17.366L4.79484 17.421C2.29973 17.4382 0.245881 15.8054 0.231875 13.7727L0.215244 11.3588C0.212566 10.9702 0.618039 10.6963 1.09731 10.6893C1.94907 10.6759 2.63222 10.1093 2.62746 9.41761C2.62285 8.74945 1.94625 8.2459 1.06426 8.25198C0.832161 8.25358 0.611145 8.17981 0.447765 8.04918C0.284386 7.91855 0.190313 7.74039 0.189016 7.55217L0.172222 5.11479C0.158243 3.08584 2.19395 1.41168 4.69602 1.39444L12.6699 1.3395C13.0598 1.33681 13.3784 1.59154 13.3806 1.90868L13.3972 4.31783C13.3999 4.70367 13.7967 5.02092 14.2725 5.01764C14.7599 5.01428 15.1406 4.69168 15.138 4.30584L15.1214 1.89669C15.1192 1.57955 15.4343 1.32045 15.8253 1.31776L19.6086 1.29169C22.1153 1.27442 24.1576 2.9073 24.1716 4.94002L24.1879 7.31153C24.1892 7.49975 24.0976 7.67919 23.9361 7.81206ZM14.3222 12.2168C14.8096 12.2135 15.1904 11.8909 15.1877 11.505L15.1618 7.74073C15.1591 7.35489 14.7739 7.03756 14.2865 7.04092C13.8107 7.0442 13.4183 7.36688 13.421 7.75272L13.4469 11.517C13.4496 11.9029 13.8464 12.2201 14.3222 12.2168Z" fill="#A4A4A4"/>
</svg>
