<svg width="24" height="25" viewBox="0 0 24 25" fill="none" xmlns="http://www.w3.org/2000/svg">
<path d="M10.2075 3.92223L8.29125 6.31754C7.7175 6.51442 7.185 6.87535 6.735 7.37223L5.7375 8.48317C5.355 8.90973 4.85625 9.1441 4.3425 9.1441H3.6V15.1441C4.365 15.1722 5.0925 15.5613 5.63625 16.241L6.97125 17.9097L7.23375 18.2379L8.24625 19.5035C8.47875 19.7941 8.86125 19.7941 9.09375 19.5035C9.1575 19.4238 9.20625 19.33 9.2325 19.2316C9.3375 18.8707 9.58125 18.5988 9.88125 18.5144C10.1813 18.43 10.4963 18.5425 10.7138 18.8191L11.1188 19.316C11.5538 19.8597 12.2587 19.8597 12.69 19.316C12.8925 19.0629 13.0013 18.7394 13.0125 18.4066C13.0275 17.9941 13.2225 17.6285 13.5225 17.4504C13.8225 17.2722 14.1713 17.3097 14.4375 17.5488C14.79 17.8629 15.2812 17.8207 15.5963 17.4269C15.9488 16.9863 15.9488 16.2738 15.5963 15.8379L12.7538 12.2847L11.4113 13.8316C10.3875 15.0129 8.81625 15.0316 7.77375 13.8738C6.585 12.5519 6.55875 10.2457 7.71375 8.8816L10.3425 5.77848C11.37 4.5691 12.7275 3.8941 14.1413 3.8941C15.495 3.8941 16.8038 4.51754 17.8125 5.63785L18.9413 6.8941H20.4H21.9H23.4C23.73 6.8941 24 7.2316 24 7.6441V17.3941C24 18.2238 23.4638 18.8941 22.8 18.8941H21.6C21.1575 18.8941 20.7675 18.5941 20.5613 18.1441H17.3775C17.25 18.4582 17.0813 18.7582 16.8713 19.0207C16.23 19.8222 15.3413 20.1363 14.5087 19.9629C14.3738 20.305 14.19 20.6238 13.9613 20.9097C12.9375 22.1894 11.3363 22.316 10.1962 21.2894C9.255 22.2644 7.8525 22.2035 6.97125 21.0972L5.9625 19.8316L5.7 19.5035L4.365 17.8347C4.15875 17.5769 3.88875 17.4269 3.6 17.3988C3.6 18.2238 3.06 18.8941 2.4 18.8941H1.2C0.53625 18.8941 0 18.2238 0 17.3941V7.6441C0 7.2316 0.27 6.8941 0.6 6.8941H2.1H3.6H4.3425C4.4175 6.8941 4.48875 6.86129 4.54125 6.80035L5.535 5.6941C6.58125 4.53629 7.9275 3.8941 9.32625 3.8941H9.7125C9.8775 3.8941 10.0463 3.90348 10.2075 3.92223ZM20.4 15.8941V9.1441H18.6C18.3787 9.1441 18.165 9.04098 18.0038 8.85817L16.62 7.32067C15.9375 6.56129 15.0563 6.1441 14.1413 6.1441C13.1888 6.1441 12.2738 6.59879 11.58 7.41442L8.95125 10.5175C8.565 10.9769 8.5725 11.7504 8.97 12.191C9.31875 12.58 9.8475 12.5707 10.1888 12.1769L12.885 9.06442C13.2488 8.64254 13.8188 8.67067 14.1563 9.13004C14.4938 9.58942 14.4713 10.2972 14.1038 10.7191L14.0738 10.7566L16.8638 14.2441C17.2388 14.7129 17.4825 15.2894 17.5913 15.8894H20.4V15.8941ZM2.4 16.6441C2.4 16.4452 2.33679 16.2544 2.22426 16.1138C2.11174 15.9731 1.95913 15.8941 1.8 15.8941C1.64087 15.8941 1.48826 15.9731 1.37574 16.1138C1.26321 16.2544 1.2 16.4452 1.2 16.6441C1.2 16.843 1.26321 17.0338 1.37574 17.1744C1.48826 17.3151 1.64087 17.3941 1.8 17.3941C1.95913 17.3941 2.11174 17.3151 2.22426 17.1744C2.33679 17.0338 2.4 16.843 2.4 16.6441ZM22.2 17.3941C22.3591 17.3941 22.5117 17.3151 22.6243 17.1744C22.7368 17.0338 22.8 16.843 22.8 16.6441C22.8 16.4452 22.7368 16.2544 22.6243 16.1138C22.5117 15.9731 22.3591 15.8941 22.2 15.8941C22.0409 15.8941 21.8883 15.9731 21.7757 16.1138C21.6632 16.2544 21.6 16.4452 21.6 16.6441C21.6 16.843 21.6632 17.0338 21.7757 17.1744C21.8883 17.3151 22.0409 17.3941 22.2 17.3941Z" fill="#A4A4A4"/>
</svg>
