 <svg width="21" height="21" viewBox="0 0 21 21" fill="none" xmlns="http://www.w3.org/2000/svg">
<g clip-path="url(#clip0_1069_1244)">
<path d="M19.7114 6.58838C20.2695 6.1001 20.2695 5.30713 19.7114 4.81885L15.4257 1.06885C14.8677 0.580566 13.9614 0.580566 13.4034 1.06885C12.8454 1.55713 12.8454 2.3501 13.4034 2.83838L15.2516 4.45557L1.55964 4.45557C0.769466 4.45557 0.131073 5.01416 0.131073 5.70557C0.131073 6.39697 0.769466 6.95557 1.55964 6.95557L15.2516 6.95557L13.4034 8.57275C12.8454 9.06104 12.8454 9.854 13.4034 10.3423C13.9614 10.8306 14.8677 10.8306 15.4257 10.3423L19.7114 6.59229L19.7114 6.58838ZM4.83197 20.3384C5.39 20.8267 6.29625 20.8267 6.85429 20.3384C7.41232 19.8501 7.41232 19.0571 6.85429 18.5688L5.01054 16.9556L18.7025 16.9556C19.4927 16.9556 20.1311 16.397 20.1311 15.7056C20.1311 15.0142 19.4927 14.4556 18.7025 14.4556L5.01054 14.4556L6.85875 12.8384C7.41679 12.3501 7.41679 11.5571 6.85875 11.0688C6.30072 10.5806 5.39447 10.5806 4.83643 11.0688L0.550716 14.8188C-0.00731988 15.3071 -0.00731988 16.1001 0.550716 16.5884L4.83643 20.3384L4.83197 20.3384Z" fill="#A4A4A4"/>
</g>
<defs>
<clipPath id="clip0_1069_1244">
<rect width="20" height="20" fill="white" transform="translate(0.131073 0.705566)"/>
</clipPath>
</defs>
</svg>
 