 <svg width="25" height="25" viewBox="0 0 25 25" fill="none" xmlns="http://www.w3.org/2000/svg">
<g opacity="0.4">
<path fill-rule="evenodd" clip-rule="evenodd" d="M7.45875 2.90127L16.7975 2.83692C20.1984 2.81349 22.1317 4.72921 22.1651 8.13007L22.2295 17.4698C22.2529 20.8698 20.3362 22.813 16.9353 22.8364L7.59655 22.9008C4.19563 22.9242 2.25338 21.0076 2.22995 17.6076L2.1656 8.26786C2.14217 4.86694 4.05783 2.9247 7.45875 2.90127ZM12.2869 18.7284C12.7179 18.7254 13.0747 18.4029 13.1117 17.9727L13.0415 7.78292C13.0794 7.47265 12.9282 7.16268 12.6571 6.99555C12.3749 6.82749 12.0349 6.82983 11.7671 7.00168C11.4973 7.17254 11.3504 7.48456 11.3816 7.79435L11.4518 17.9841C11.5057 18.4138 11.8669 18.7313 12.2869 18.7284ZM16.8878 18.6967C17.3078 18.6938 17.6646 18.3713 17.7126 17.941L17.69 14.6611C17.7168 14.3399 17.5657 14.0419 17.2936 13.8738C17.0234 13.7056 16.6834 13.708 16.4046 13.8799C16.1348 14.0518 15.9878 14.3518 16.0301 14.6725L16.0527 17.9524C16.0956 18.3821 16.4568 18.6996 16.8878 18.6967ZM8.45183 18.0048C8.4148 18.435 8.05801 18.7575 7.62702 18.7605C7.19703 18.7634 6.83484 18.4459 6.79287 18.0162L6.74526 11.1064C6.71312 10.7956 6.85999 10.4856 7.12981 10.3137C7.39763 10.1419 7.73863 10.1395 8.00979 10.3076C8.27996 10.4758 8.43308 10.7837 8.40423 11.0949L8.45183 18.0048Z" fill="#030229"/>
</g>
</svg>
