<svg width="25" height="25" viewBox="0 0 25 25" fill="none" xmlns="http://www.w3.org/2000/svg">
<g clip-path="url(#clip0_1069_1239)">
<path d="M12.626 3.23877L15.8926 4.63096L12.5093 6.09346L9.12597 4.63096L12.3926 3.23877C12.4676 3.20596 12.551 3.20596 12.6301 3.23877L12.626 3.23877ZM6.17597 5.29658L6.17597 10.556C6.12181 10.5747 6.06764 10.5935 6.01347 10.6169L2.01347 12.3231C1.10931 12.7075 0.509308 13.6872 0.509308 14.7747L0.509308 20.3622C0.509308 21.4028 1.05514 22.345 1.90514 22.7669L5.90514 24.745C6.50514 25.0403 7.18431 25.0403 7.78431 24.745L12.5093 22.406L17.2385 24.745C17.8385 25.0403 18.5176 25.0403 19.1176 24.745L23.1176 22.7669C23.9635 22.3497 24.5135 21.4028 24.5135 20.3622L24.5135 14.7747C24.5135 13.6825 23.9135 12.7075 23.0093 12.3185L19.0093 10.6122C18.9551 10.5888 18.901 10.57 18.8468 10.5513L18.8468 5.29658C18.8468 4.20439 18.2468 3.22939 17.3426 2.84033L13.3426 1.13408C12.8093 0.909082 12.2218 0.909082 11.6885 1.13408L7.68847 2.84033C6.77597 3.22939 6.17597 4.20908 6.17597 5.29658ZM16.8426 10.8325L13.4093 12.295L13.4093 8.11377L16.8426 6.63252L16.8426 10.8325ZM6.95931 12.7216L10.226 14.1138L6.84264 15.5716L3.45931 14.1138L6.72597 12.7216C6.80097 12.6888 6.88431 12.6888 6.96347 12.7216L6.95931 12.7216ZM7.74264 22.3028L7.74264 17.5919L11.176 16.1106L11.176 20.606L7.74264 22.3028ZM18.0593 12.7216C18.1343 12.6888 18.2176 12.6888 18.2968 12.7216L21.5635 14.1138L18.176 15.5716L14.7926 14.1138L18.0593 12.7216ZM22.3093 20.7044L19.076 22.3028L19.076 17.5919L22.5093 16.1106L22.5093 20.3622C22.5093 20.5122 22.4301 20.6435 22.3093 20.7044Z" fill="#A4A4A4"/>
</g>
<defs>
<clipPath id="clip0_1069_1239">
<rect width="24" height="24" fill="white" transform="translate(0.509308 0.960449)"/>
</clipPath>
</defs>
</svg>
