<svg width="20" height="21" viewBox="0 0 20 21" fill="none" xmlns="http://www.w3.org/2000/svg">
<g clip-path="url(#clip0_1540_14)">
<path d="M10 10.7883C11.5155 10.7883 12.969 10.2615 14.0406 9.32386C15.1122 8.38618 15.7143 7.11441 15.7143 5.78833C15.7143 4.46225 15.1122 3.19048 14.0406 2.2528C12.969 1.31511 11.5155 0.78833 10 0.78833C8.48448 0.78833 7.03103 1.31511 5.95939 2.2528C4.88775 3.19048 4.28571 4.46225 4.28571 5.78833C4.28571 7.11441 4.88775 8.38618 5.95939 9.32386C7.03103 10.2615 8.48448 10.7883 10 10.7883ZM7.95982 12.6633C3.5625 12.6633 -1.16737e-09 15.7805 -1.46697e-09 19.6282C-1.51685e-09 20.2688 0.59375 20.7883 1.32589 20.7883L18.6741 20.7883C19.4062 20.7883 20 20.2688 20 19.6282C20 15.7805 16.4375 12.6633 12.0402 12.6633L7.95982 12.6633Z" fill="#030229" fill-opacity="0.5"/>
</g>
<defs>
<clipPath id="clip0_1540_14">
<rect width="20" height="20" fill="white" transform="translate(0 0.78833)"/>
</clipPath>
</defs>
</svg>
