<svg width="20" height="21" viewBox="0 0 20 21" fill="none" xmlns="http://www.w3.org/2000/svg">
<g clip-path="url(#clip0_1044_347)">
<path d="M-6.10352e-05 5.39417C-6.10352e-05 4.01526 1.12103 2.89417 2.49994 2.89417H17.4999C18.8788 2.89417 19.9999 4.01526 19.9999 5.39417V17.8942C19.9999 19.2731 18.8788 20.3942 17.4999 20.3942H2.49994C1.12103 20.3942 -6.10352e-05 19.2731 -6.10352e-05 17.8942V5.39417ZM2.49994 5.39417V7.89417H4.99994V5.39417H2.49994ZM17.4999 5.39417H7.49994V7.89417H17.4999V5.39417ZM2.49994 10.3942V12.8942H4.99994V10.3942H2.49994ZM17.4999 10.3942H7.49994V12.8942H17.4999V10.3942ZM2.49994 15.3942V17.8942H4.99994V15.3942H2.49994ZM17.4999 15.3942H7.49994V17.8942H17.4999V15.3942Z" fill="#A4A4A4"/>
</g>
<defs>
<clipPath id="clip0_1044_347">
<rect width="20" height="20" fill="white" transform="translate(-6.10352e-05 0.894165)"/>
</clipPath>
</defs>
</svg>
