<svg width="25" height="25" viewBox="0 0 25 25" fill="none" xmlns="http://www.w3.org/2000/svg">
<g opacity="0.4">
<path fill-rule="evenodd" clip-rule="evenodd" d="M4.8896 2.20857L8.2695 2.18529C9.67946 2.17557 10.8174 3.31778 10.8271 4.72876L10.8506 8.13774C10.8603 9.55772 9.73823 10.7055 8.32827 10.7152L4.94837 10.7385C3.54841 10.7481 2.40059 9.61601 2.3908 8.19602L2.36732 4.78705C2.35759 3.37606 3.48964 2.21822 4.8896 2.20857ZM4.96862 13.6782L8.34853 13.6549C9.75849 13.6452 10.8963 14.7784 10.9061 16.1984L10.9296 19.6073C10.9393 21.0173 9.81726 22.1751 8.4073 22.1848L5.02739 22.2081C3.62743 22.2178 2.47954 21.0756 2.46983 19.6656L2.44634 16.2567C2.43656 14.8367 3.56866 13.6878 4.96862 13.6782ZM19.8093 2.10578L16.4294 2.12907C15.0194 2.13878 13.8973 3.29656 13.9071 4.70754L13.9306 8.11651C13.9403 9.5365 15.0782 10.6687 16.4881 10.659L19.868 10.6357C21.268 10.6261 22.4001 9.47821 22.3903 8.05823L22.3668 4.64926C22.3571 3.23827 21.2092 2.09613 19.8093 2.10578ZM16.5084 13.5987L19.8883 13.5754C21.2883 13.5657 22.4361 14.6989 22.4459 16.1189L22.4694 19.5278C22.4791 20.9378 21.347 22.0957 19.9471 22.1053L16.5672 22.1286C15.1572 22.1383 14.0193 20.9961 14.0096 19.5861L13.9861 16.1772C13.9763 14.7572 15.0984 13.6084 16.5084 13.5987Z" fill="#030229"/>
</g>
</svg>
