<svg width="19" height="25" viewBox="0 0 19 25" fill="none" xmlns="http://www.w3.org/2000/svg">
<g clip-path="url(#clip0_1069_1252)">
<path d="M9.28807 0.5C7.3287 0.5 5.65995 1.75156 5.04589 3.5L3.28807 3.5C1.63339 3.5 0.288074 4.84531 0.288074 6.5L0.288074 21.5C0.288074 23.1547 1.63339 24.5 3.28807 24.5L15.2881 24.5C16.9428 24.5 18.2881 23.1547 18.2881 21.5L18.2881 6.5C18.2881 4.84531 16.9428 3.5 15.2881 3.5L13.5303 3.5C12.9162 1.75156 11.2474 0.5 9.28807 0.5ZM9.28807 3.5C9.6859 3.5 10.0674 3.65804 10.3487 3.93934C10.63 4.22064 10.7881 4.60218 10.7881 5C10.7881 5.39782 10.63 5.77936 10.3487 6.06066C10.0674 6.34196 9.6859 6.5 9.28807 6.5C8.89025 6.5 8.50872 6.34196 8.22741 6.06066C7.94611 5.77936 7.78807 5.39782 7.78807 5C7.78807 4.60218 7.94611 4.22064 8.22741 3.93934C8.50872 3.65804 8.89025 3.5 9.28807 3.5ZM6.28807 12.5C6.28807 11.7044 6.60415 10.9413 7.16675 10.3787C7.72936 9.81607 8.49242 9.5 9.28807 9.5C10.0837 9.5 10.8468 9.81607 11.4094 10.3787C11.972 10.9413 12.2881 11.7044 12.2881 12.5C12.2881 13.2956 11.972 14.0587 11.4094 14.6213C10.8468 15.1839 10.0837 15.5 9.28807 15.5C8.49242 15.5 7.72936 15.1839 7.16675 14.6213C6.60415 14.0587 6.28807 13.2956 6.28807 12.5ZM4.03807 20.75C4.03807 18.6781 5.7162 17 7.78807 17L10.7881 17C12.8599 17 14.5381 18.6781 14.5381 20.75C14.5381 21.1625 14.2006 21.5 13.7881 21.5L4.78807 21.5C4.37557 21.5 4.03807 21.1625 4.03807 20.75Z" fill="#A4A4A4"/>
</g>
<defs>
<clipPath id="clip0_1069_1252">
<rect width="18" height="24" fill="white" transform="translate(0.288074 0.5)"/>
</clipPath>
</defs>
</svg>
