<svg width="20" height="23" viewBox="0 0 20 23" fill="none" xmlns="http://www.w3.org/2000/svg">
<path d="M-6.10352e-05 5.28821C-6.10352e-05 3.9093 0.996467 2.78821 2.22216 2.78821H7.77772V7.78821C7.77772 8.47961 8.27425 9.03821 8.88883 9.03821H13.3333V10.546C10.7673 11.3624 8.88883 14.0148 8.88883 17.1632C8.88883 19.4718 9.89925 21.5109 11.4479 22.7609C11.3367 22.7804 11.2256 22.7882 11.1111 22.7882H2.22216C0.996467 22.7882 -6.10352e-05 21.6671 -6.10352e-05 20.2882V5.28821ZM13.3333 7.78821H8.88883V2.78821L13.3333 7.78821ZM9.99994 17.1632C9.99994 15.6714 10.5267 14.2406 11.4644 13.1857C12.4021 12.1308 13.6739 11.5382 14.9999 11.5382C16.326 11.5382 17.5978 12.1308 18.5355 13.1857C19.4732 14.2406 19.9999 15.6714 19.9999 17.1632C19.9999 18.6551 19.4732 20.0858 18.5355 21.1407C17.5978 22.1956 16.326 22.7882 14.9999 22.7882C13.6739 22.7882 12.4021 22.1956 11.4644 21.1407C10.5267 20.0858 9.99994 18.6551 9.99994 17.1632ZM17.3367 15.4718C17.1215 15.2296 16.7673 15.2296 16.552 15.4718L14.4444 17.8429L13.4479 16.7218C13.2326 16.4796 12.8784 16.4796 12.6631 16.7218C12.4479 16.964 12.4479 17.3624 12.6631 17.6046L14.052 19.1671C14.2673 19.4093 14.6215 19.4093 14.8367 19.1671L17.3367 16.3546C17.552 16.1124 17.552 15.714 17.3367 15.4718Z" fill="#A4A4A4"/>
</svg>
