<svg width="23" height="23" viewBox="0 0 23 23" fill="none" xmlns="http://www.w3.org/2000/svg">
<g clip-path="url(#clip0_1069_1249)">
<path d="M4.8074 2.50213C3.3366 2.51227 2.14852 3.64158 2.15802 5.02045L2.26137 20.0201C2.27087 21.399 3.47439 22.5118 4.94519 22.5017L16.9449 22.419C18.4157 22.4088 19.6038 21.2795 19.5943 19.9007L19.4909 4.90102C19.4814 3.52215 18.2779 2.40932 16.8071 2.41946L4.8074 2.50213ZM9.55146 13.7197L12.2181 13.7013C14.0597 13.6887 15.561 15.0768 15.5729 16.8033C15.5752 17.147 15.2772 17.4304 14.9105 17.4329L6.9107 17.488C6.54404 17.4905 6.24211 17.2114 6.23974 16.8676C6.22784 15.1411 7.70984 13.7324 9.55146 13.7197ZM8.19232 9.97899C8.18776 9.31597 8.46432 8.67816 8.96118 8.20588C9.45803 7.73361 10.1345 7.46555 10.8417 7.46068C11.5489 7.4558 12.229 7.71452 12.7323 8.1799C13.2356 8.64529 13.521 9.27922 13.5255 9.94225C13.5301 10.6053 13.2535 11.2431 12.7567 11.7154C12.2598 12.1876 11.5834 12.4557 10.8762 12.4606C10.1689 12.4654 9.48885 12.2067 8.98553 11.7413C8.48222 11.276 8.19689 10.642 8.19232 9.97899ZM22.1619 5.50764C22.1595 5.1639 21.8576 4.88472 21.4909 4.88724C21.1242 4.88977 20.8262 5.17308 20.8285 5.51682L20.8458 8.01676C20.8481 8.36051 21.1501 8.63968 21.5167 8.63716C21.8834 8.63463 22.1814 8.35132 22.1791 8.00758L22.1619 5.50764ZM21.5253 9.88713C21.1587 9.88965 20.8606 10.173 20.863 10.5167L20.8802 13.0166C20.8826 13.3604 21.1845 13.6396 21.5512 13.637C21.9178 13.6345 22.2159 13.3512 22.2135 13.0075L22.1963 10.5075C22.1939 10.1638 21.892 9.8846 21.5253 9.88713ZM22.2307 15.5074C22.2284 15.1637 21.9265 14.8845 21.5598 14.887C21.1931 14.8895 20.8951 15.1728 20.8974 15.5166L20.9147 18.0165C20.917 18.3603 21.219 18.6394 21.5856 18.6369C21.9523 18.6344 22.2503 18.3511 22.248 18.0073L22.2307 15.5074Z" fill="#A4A4A4"/>
</g>
<defs>
<clipPath id="clip0_1069_1249">
<rect width="20" height="20" fill="white" transform="translate(2.14079 2.52051) rotate(-0.394762)"/>
</clipPath>
</defs>
</svg>
