<svg width="28" height="21" viewBox="0 0 28 21" fill="none" xmlns="http://www.w3.org/2000/svg">
<path d="M0 1.72583C0 1.2063 0.371528 0.78833 0.833333 0.78833L2.41319 0.78833C3.17708 0.78833 3.85417 1.28833 4.17014 2.03833L18.441 2.03833C19.3542 2.03833 20.0208 3.01489 19.7813 4.00708L18.3576 9.9563C18.0625 11.1829 17.0729 12.0383 15.9444 12.0383L5.92708 12.0383L6.11458 13.1516C6.19097 13.593 6.53472 13.9133 6.93403 13.9133L16.9444 13.9133C17.4062 13.9133 17.7778 14.3313 17.7778 14.8508C17.7778 15.3704 17.4062 15.7883 16.9444 15.7883L6.93403 15.7883C5.73264 15.7883 4.70139 14.8274 4.47917 13.5032L2.6875 2.91724C2.66319 2.7688 2.54861 2.66333 2.41319 2.66333L0.833333 2.66333C0.371528 2.66333 0 2.24536 0 1.72583ZM4.44444 18.9133C4.44444 18.6671 4.48755 18.4233 4.57131 18.1958C4.65507 17.9683 4.77784 17.7616 4.9326 17.5875C5.08736 17.4134 5.2711 17.2753 5.47331 17.1811C5.67552 17.0868 5.89224 17.0383 6.11111 17.0383C6.32998 17.0383 6.54671 17.0868 6.74892 17.1811C6.95113 17.2753 7.13486 17.4134 7.28962 17.5875C7.44439 17.7616 7.56715 17.9683 7.65091 18.1958C7.73467 18.4233 7.77778 18.6671 7.77778 18.9133C7.77778 19.1596 7.73467 19.4034 7.65091 19.6309C7.56715 19.8583 7.44439 20.065 7.28962 20.2392C7.13486 20.4133 6.95113 20.5514 6.74892 20.6456C6.54671 20.7398 6.32998 20.7883 6.11111 20.7883C5.89224 20.7883 5.67552 20.7398 5.47331 20.6456C5.2711 20.5514 5.08736 20.4133 4.9326 20.2392C4.77784 20.065 4.65507 19.8583 4.57131 19.6309C4.48755 19.4034 4.44444 19.1596 4.44444 18.9133ZM16.1111 17.0383C16.5531 17.0383 16.9771 17.2359 17.2896 17.5875C17.6022 17.9391 17.7778 18.416 17.7778 18.9133C17.7778 19.4106 17.6022 19.8875 17.2896 20.2392C16.9771 20.5908 16.5531 20.7883 16.1111 20.7883C15.6691 20.7883 15.2452 20.5908 14.9326 20.2392C14.62 19.8875 14.4444 19.4106 14.4444 18.9133C14.4444 18.416 14.62 17.9391 14.9326 17.5875C15.2452 17.2359 15.6691 17.0383 16.1111 17.0383Z" fill="#A4A4A4"/>
<path d="M20.1679 8.43525C19.9446 8.63057 19.9446 8.94775 20.1679 9.14307L23.025 11.6431C23.2482 11.8384 23.6107 11.8384 23.8339 11.6431C24.0571 11.4478 24.0571 11.1306 23.8339 10.9353L21.95 9.28838H27.4286C27.7446 9.28838 28 9.06494 28 8.78838C28 8.51182 27.7446 8.28838 27.4286 8.28838H21.9518L23.8321 6.6415C24.0554 6.44619 24.0554 6.129 23.8321 5.93369C23.6089 5.73838 23.2464 5.73838 23.0232 5.93369L20.1661 8.43369L20.1679 8.43525Z" fill="#A4A4A4"/>
</svg>
