<svg width="28" height="21" viewBox="0 0 28 21" fill="none" xmlns="http://www.w3.org/2000/svg">
<path d="M0 1.72571C0 1.20618 0.371528 0.788208 0.833333 0.788208L2.41319 0.788208C3.17708 0.788208 3.85417 1.28821 4.17014 2.03821L18.441 2.03821C19.3542 2.03821 20.0208 3.01477 19.7813 4.00696L18.3576 9.95618C18.0625 11.1827 17.0729 12.0382 15.9444 12.0382L5.92708 12.0382L6.11458 13.1515C6.19097 13.5929 6.53472 13.9132 6.93403 13.9132L16.9444 13.9132C17.4062 13.9132 17.7778 14.3312 17.7778 14.8507C17.7778 15.3702 17.4062 15.7882 16.9444 15.7882L6.93403 15.7882C5.73264 15.7882 4.70139 14.8273 4.47917 13.5031L2.6875 2.91711C2.66319 2.76868 2.54861 2.66321 2.41319 2.66321L0.833333 2.66321C0.371528 2.66321 0 2.24524 0 1.72571ZM4.44444 18.9132C4.44444 18.667 4.48755 18.4232 4.57131 18.1957C4.65507 17.9682 4.77784 17.7615 4.9326 17.5874C5.08736 17.4133 5.2711 17.2752 5.47331 17.1809C5.67552 17.0867 5.89224 17.0382 6.11111 17.0382C6.32998 17.0382 6.54671 17.0867 6.74892 17.1809C6.95113 17.2752 7.13486 17.4133 7.28962 17.5874C7.44439 17.7615 7.56715 17.9682 7.65091 18.1957C7.73467 18.4232 7.77778 18.667 7.77778 18.9132C7.77778 19.1594 7.73467 19.4033 7.65091 19.6307C7.56715 19.8582 7.44439 20.0649 7.28962 20.239C7.13486 20.4131 6.95113 20.5513 6.74892 20.6455C6.54671 20.7397 6.32998 20.7882 6.11111 20.7882C5.89224 20.7882 5.67552 20.7397 5.47331 20.6455C5.2711 20.5513 5.08736 20.4131 4.9326 20.239C4.77784 20.0649 4.65507 19.8582 4.57131 19.6307C4.48755 19.4033 4.44444 19.1594 4.44444 18.9132ZM16.1111 17.0382C16.5531 17.0382 16.9771 17.2358 17.2896 17.5874C17.6022 17.939 17.7778 18.4159 17.7778 18.9132C17.7778 19.4105 17.6022 19.8874 17.2896 20.239C16.9771 20.5907 16.5531 20.7882 16.1111 20.7882C15.6691 20.7882 15.2452 20.5907 14.9326 20.239C14.62 19.8874 14.4444 19.4105 14.4444 18.9132C14.4444 18.4159 14.62 17.939 14.9326 17.5874C15.2452 17.2358 15.6691 17.0382 16.1111 17.0382Z" fill="#28C2FF"/>
<path d="M20.1679 8.43513C19.9446 8.63044 19.9446 8.94763 20.1679 9.14294L23.025 11.6429C23.2482 11.8383 23.6107 11.8383 23.8339 11.6429C24.0571 11.4476 24.0571 11.1304 23.8339 10.9351L21.95 9.28826H27.4286C27.7446 9.28826 28 9.06482 28 8.78826C28 8.51169 27.7446 8.28826 27.4286 8.28826H21.9518L23.8321 6.64138C24.0554 6.44607 24.0554 6.12888 23.8321 5.93357C23.6089 5.73826 23.2464 5.73826 23.0232 5.93357L20.1661 8.43357L20.1679 8.43513Z" fill="#28C2FF"/>
</svg>
