<svg width="28" height="21" viewBox="0 0 28 21" fill="none" xmlns="http://www.w3.org/2000/svg">
<g clip-path="url(#clip0_1606_274)">
<path d="M0 1.83154C0 1.31201 0.371528 0.894043 0.833333 0.894043H2.41319C3.17708 0.894043 3.85417 1.39404 4.17014 2.14404H18.441C19.3542 2.14404 20.0208 3.12061 19.7813 4.11279L18.3576 10.062C18.0625 11.2886 17.0729 12.144 15.9444 12.144H5.92708L6.11458 13.2573C6.19097 13.6987 6.53472 14.019 6.93403 14.019H16.9444C17.4062 14.019 17.7778 14.437 17.7778 14.9565C17.7778 15.4761 17.4062 15.894 16.9444 15.894H6.93403C5.73264 15.894 4.70139 14.9331 4.47917 13.6089L2.6875 3.02295C2.66319 2.87451 2.54861 2.76904 2.41319 2.76904H0.833333C0.371528 2.76904 0 2.35107 0 1.83154ZM4.44444 19.019C4.44444 18.7728 4.48755 18.529 4.57131 18.3015C4.65507 18.074 4.77784 17.8673 4.9326 17.6932C5.08736 17.5191 5.2711 17.381 5.47331 17.2868C5.67552 17.1925 5.89224 17.144 6.11111 17.144C6.32998 17.144 6.54671 17.1925 6.74892 17.2868C6.95113 17.381 7.13486 17.5191 7.28962 17.6932C7.44439 17.8673 7.56715 18.074 7.65091 18.3015C7.73467 18.529 7.77778 18.7728 7.77778 19.019C7.77778 19.2653 7.73467 19.5091 7.65091 19.7366C7.56715 19.9641 7.44439 20.1708 7.28962 20.3449C7.13486 20.519 6.95113 20.6571 6.74892 20.7513C6.54671 20.8455 6.32998 20.894 6.11111 20.894C5.89224 20.894 5.67552 20.8455 5.47331 20.7513C5.2711 20.6571 5.08736 20.519 4.9326 20.3449C4.77784 20.1708 4.65507 19.9641 4.57131 19.7366C4.48755 19.5091 4.44444 19.2653 4.44444 19.019ZM16.1111 17.144C16.5531 17.144 16.9771 17.3416 17.2896 17.6932C17.6022 18.0448 17.7778 18.5218 17.7778 19.019C17.7778 19.5163 17.6022 19.9932 17.2896 20.3449C16.9771 20.6965 16.5531 20.894 16.1111 20.894C15.6691 20.894 15.2452 20.6965 14.9326 20.3449C14.62 19.9932 14.4444 19.5163 14.4444 19.019C14.4444 18.5218 14.62 18.0448 14.9326 17.6932C15.2452 17.3416 15.6691 17.144 16.1111 17.144Z" fill="#28C2FF"/>
</g>
<path d="M27.8321 9.24712C28.0554 9.05181 28.0554 8.73462 27.8321 8.53931L24.975 6.03931C24.7518 5.84399 24.3893 5.84399 24.1661 6.03931C23.9429 6.23462 23.9429 6.55181 24.1661 6.74712L26.05 8.39399H20.5714C20.2554 8.39399 20 8.61743 20 8.89399C20 9.17056 20.2554 9.39399 20.5714 9.39399H26.0482L24.1679 11.0409C23.9446 11.2362 23.9446 11.5534 24.1679 11.7487C24.3911 11.944 24.7536 11.944 24.9768 11.7487L27.8339 9.24868L27.8321 9.24712Z" fill="#28C2FF"/>
<defs>
<clipPath id="clip0_1606_274">
<rect width="20" height="20" fill="white" transform="translate(0 0.894043)"/>
</clipPath>
</defs>
</svg>
