<svg width="28" height="21" viewBox="0 0 28 21" fill="none" xmlns="http://www.w3.org/2000/svg">
<g clip-path="url(#clip0_1606_800)">
<path d="M0 1.83167C0 1.31213 0.371528 0.894165 0.833333 0.894165H2.41319C3.17708 0.894165 3.85417 1.39417 4.17014 2.14417H18.441C19.3542 2.14417 20.0208 3.12073 19.7813 4.11292L18.3576 10.0621C18.0625 11.2887 17.0729 12.1442 15.9444 12.1442H5.92708L6.11458 13.2574C6.19097 13.6989 6.53472 14.0192 6.93403 14.0192H16.9444C17.4062 14.0192 17.7778 14.4371 17.7778 14.9567C17.7778 15.4762 17.4062 15.8942 16.9444 15.8942H6.93403C5.73264 15.8942 4.70139 14.9332 4.47917 13.609L2.6875 3.02307C2.66319 2.87463 2.54861 2.76917 2.41319 2.76917H0.833333C0.371528 2.76917 0 2.3512 0 1.83167ZM4.44444 19.0192C4.44444 18.7729 4.48755 18.5291 4.57131 18.3016C4.65507 18.0741 4.77784 17.8674 4.9326 17.6933C5.08736 17.5192 5.2711 17.3811 5.47331 17.2869C5.67552 17.1927 5.89224 17.1442 6.11111 17.1442C6.32998 17.1442 6.54671 17.1927 6.74892 17.2869C6.95113 17.3811 7.13486 17.5192 7.28962 17.6933C7.44439 17.8674 7.56715 18.0741 7.65091 18.3016C7.73467 18.5291 7.77778 18.7729 7.77778 19.0192C7.77778 19.2654 7.73467 19.5092 7.65091 19.7367C7.56715 19.9642 7.44439 20.1709 7.28962 20.345C7.13486 20.5191 6.95113 20.6572 6.74892 20.7514C6.54671 20.8457 6.32998 20.8942 6.11111 20.8942C5.89224 20.8942 5.67552 20.8457 5.47331 20.7514C5.2711 20.6572 5.08736 20.5191 4.9326 20.345C4.77784 20.1709 4.65507 19.9642 4.57131 19.7367C4.48755 19.5092 4.44444 19.2654 4.44444 19.0192ZM16.1111 17.1442C16.5531 17.1442 16.9771 17.3417 17.2896 17.6933C17.6022 18.045 17.7778 18.5219 17.7778 19.0192C17.7778 19.5164 17.6022 19.9934 17.2896 20.345C16.9771 20.6966 16.5531 20.8942 16.1111 20.8942C15.6691 20.8942 15.2452 20.6966 14.9326 20.345C14.62 19.9934 14.4444 19.5164 14.4444 19.0192C14.4444 18.5219 14.62 18.045 14.9326 17.6933C15.2452 17.3417 15.6691 17.1442 16.1111 17.1442Z" fill="#A4A4A4"/>
</g>
<path d="M27.8321 9.24724C28.0554 9.05193 28.0554 8.73474 27.8321 8.53943L24.975 6.03943C24.7518 5.84412 24.3893 5.84412 24.1661 6.03943C23.9429 6.23474 23.9429 6.55193 24.1661 6.74724L26.05 8.39412H20.5714C20.2554 8.39412 20 8.61755 20 8.89412C20 9.17068 20.2554 9.39412 20.5714 9.39412H26.0482L24.1679 11.041C23.9446 11.2363 23.9446 11.5535 24.1679 11.7488C24.3911 11.9441 24.7536 11.9441 24.9768 11.7488L27.8339 9.2488L27.8321 9.24724Z" fill="#A4A4A4"/>
<defs>
<clipPath id="clip0_1606_800">
<rect width="20" height="20" fill="white" transform="translate(0 0.894165)"/>
</clipPath>
</defs>
</svg>
